<?xml version="1.0" encoding="UTF-8"?>
<!DOCTYPE svg PUBLIC "-//W3C//DTD SVG 1.1//EN" "http://www.w3.org/Graphics/SVG/1.1/DTD/svg11.dtd">
<svg xmlns="http://www.w3.org/2000/svg" version="1.1" width="500px" height="500px" style="shape-rendering:geometricPrecision; text-rendering:geometricPrecision; image-rendering:optimizeQuality; fill-rule:evenodd; clip-rule:evenodd" xmlns:xlink="http://www.w3.org/1999/xlink">
<g><path style="opacity:1" fill="#f3cf89" d="M 279.5,109.5 C 263.194,107.397 246.86,107.063 230.5,108.5C 228.833,108.5 227.167,108.5 225.5,108.5C 233.608,106.961 241.941,106.294 250.5,106.5C 260.47,106.034 270.137,107.034 279.5,109.5 Z"/></g>
<g><path style="opacity:1" fill="#fdc350" d="M 279.5,109.5 C 280.167,109.5 280.833,109.5 281.5,109.5C 281.953,110.458 282.619,111.292 283.5,112C 290.454,113.878 297.454,115.712 304.5,117.5C 307.088,119.625 310.088,120.958 313.5,121.5C 313.833,121.5 314.167,121.5 314.5,121.5C 318.268,125.005 322.268,128.338 326.5,131.5C 327.689,132.429 329.022,132.762 330.5,132.5C 328.351,137.766 329.684,138.766 334.5,135.5C 335.417,136.127 336.417,136.461 337.5,136.5C 346.77,142.621 354.437,150.288 360.5,159.5C 360.666,162.168 361.666,164.502 363.5,166.5C 362.833,167.167 362.167,167.833 361.5,168.5C 363.396,169.466 365.396,169.799 367.5,169.5C 368.92,172.261 369.587,175.261 369.5,178.5C 371.716,179.044 373.716,180.044 375.5,181.5C 380.183,188.868 383.516,196.868 385.5,205.5C 386.543,212.989 388.043,220.322 390,227.5C 390.833,242.178 390.666,256.845 389.5,271.5C 387.183,279.633 385.516,287.966 384.5,296.5C 384.5,296.833 384.5,297.167 384.5,297.5C 383.624,297.369 382.957,297.702 382.5,298.5C 380.411,303.546 378.411,308.546 376.5,313.5C 375.5,313.5 374.5,313.5 373.5,313.5C 373.5,315.833 373.5,318.167 373.5,320.5C 373.5,320.833 373.5,321.167 373.5,321.5C 371.589,321.574 370.422,322.574 370,324.5C 369.667,323.5 369.333,322.5 369,321.5C 369.33,326.512 367.33,330.179 363,332.5C 362.51,333.793 362.343,335.127 362.5,336.5C 361.5,336.5 360.5,336.5 359.5,336.5C 359.5,338.167 359.5,339.833 359.5,341.5C 357.609,342.536 355.776,342.536 354,341.5C 353.544,342.744 354.044,343.577 355.5,344C 354.552,344.483 353.552,344.649 352.5,344.5C 351.871,348.628 349.537,350.962 345.5,351.5C 345.719,352.675 345.386,353.675 344.5,354.5C 343.391,353.41 342.391,353.41 341.5,354.5C 342.567,358.438 341.567,359.104 338.5,356.5C 337.066,358.22 336.233,360.22 336,362.5C 334.933,363.191 333.766,363.691 332.5,364C 331.748,364.671 331.414,365.504 331.5,366.5C 326.176,371.167 320.176,374.834 313.5,377.5C 309.183,378.654 304.849,379.821 300.5,381C 301.416,381.278 302.082,381.778 302.5,382.5C 292.264,385.075 281.931,387.409 271.5,389.5C 257.178,390.666 242.845,390.833 228.5,390C 220.17,387.775 211.837,385.775 203.5,384C 201.003,383.588 199.003,382.422 197.5,380.5C 194.914,379.52 192.247,379.187 189.5,379.5C 180.33,375.754 171.996,370.754 164.5,364.5C 163.089,362.086 161.089,360.419 158.5,359.5C 146.701,350.704 137.034,340.038 129.5,327.5C 126.434,321.148 123.267,314.814 120,308.5C 118.005,302.844 116.172,297.177 114.5,291.5C 113.17,284.65 111.336,277.983 109,271.5C 108.333,257.5 108.333,243.5 109,229.5C 111.027,221.59 112.527,213.59 113.5,205.5C 113.5,205.167 113.5,204.833 113.5,204.5C 116.837,200.142 118.837,195.142 119.5,189.5C 120.496,189.586 121.329,189.252 122,188.5C 124.176,183.484 126.343,178.484 128.5,173.5C 129.688,172.316 130.855,172.316 132,173.5C 133.147,171.269 134.147,168.935 135,166.5C 136.406,167.668 137.572,167.335 138.5,165.5C 139.747,163.994 139.747,162.494 138.5,161C 139.448,160.517 140.448,160.351 141.5,160.5C 141.351,161.552 141.517,162.552 142,163.5C 142.778,160.816 144.111,158.483 146,156.5C 147.037,159.384 148.871,160.05 151.5,158.5C 148.758,156.067 147.925,153.067 149,149.5C 150.826,147.926 152.993,147.093 155.5,147C 153.979,143.983 154.979,142.15 158.5,141.5C 159.127,140.583 159.461,139.583 159.5,138.5C 161.443,135.529 164.109,133.529 167.5,132.5C 173.847,130.158 179.847,126.991 185.5,123C 188.284,122.8 190.784,123.634 193,125.5C 196.443,124.136 196.276,123.469 192.5,123.5C 192.561,121.408 193.561,119.908 195.5,119C 199.561,116.722 203.561,114.555 207.5,112.5C 207.833,112.5 208.167,112.5 208.5,112.5C 216.051,111.788 223.385,110.455 230.5,108.5C 246.86,107.063 263.194,107.397 279.5,109.5 Z"/></g>
<g><path style="opacity:1" fill="#f6c76d" d="M 225.5,108.5 C 227.167,108.5 228.833,108.5 230.5,108.5C 223.385,110.455 216.051,111.788 208.5,112.5C 213.817,110.166 219.484,108.833 225.5,108.5 Z"/></g>
<g><path style="opacity:1" fill="#f6cb74" d="M 281.5,109.5 C 289.67,111 297.336,113.666 304.5,117.5C 297.454,115.712 290.454,113.878 283.5,112C 282.619,111.292 281.953,110.458 281.5,109.5 Z"/></g>
<g><path style="opacity:0.882" fill="#f7d189" d="M 304.5,117.5 C 307.912,118.042 310.912,119.375 313.5,121.5C 310.088,120.958 307.088,119.625 304.5,117.5 Z"/></g>
<g><path style="opacity:1" fill="#f8c66b" d="M 207.5,112.5 C 203.561,114.555 199.561,116.722 195.5,119C 193.561,119.908 192.561,121.408 192.5,123.5C 196.276,123.469 196.443,124.136 193,125.5C 190.784,123.634 188.284,122.8 185.5,123C 179.847,126.991 173.847,130.158 167.5,132.5C 179.411,123.211 192.744,116.545 207.5,112.5 Z"/></g>
<g><path style="opacity:1" fill="#f8ca6d" d="M 314.5,121.5 C 323,125.353 330.666,130.353 337.5,136.5C 336.417,136.461 335.417,136.127 334.5,135.5C 329.684,138.766 328.351,137.766 330.5,132.5C 329.022,132.762 327.689,132.429 326.5,131.5C 322.268,128.338 318.268,125.005 314.5,121.5 Z"/></g>
<g><path style="opacity:1" fill="#574526" d="M 230.5,130.5 C 229.532,133.445 229.366,136.445 230,139.5C 232.867,141.597 235.701,143.597 238.5,145.5C 234.091,144.797 230.424,142.797 227.5,139.5C 227.337,137.143 227.503,134.81 228,132.5C 228.708,131.619 229.542,130.953 230.5,130.5 Z"/></g>
<g><path style="opacity:1" fill="#5d4923" d="M 269.5,130.5 C 271.513,139.254 272.513,147.92 272.5,156.5C 271.586,148.017 269.919,139.683 267.5,131.5C 265.929,130.691 264.262,130.357 262.5,130.5C 264.705,127.947 267.038,127.947 269.5,130.5 Z"/></g>
<g><path style="opacity:1" fill="#e6ba6c" d="M 265.5,139.5 C 265.5,141.167 265.5,142.833 265.5,144.5C 264.167,144.5 262.833,144.5 261.5,144.5C 262.167,142.167 262.833,139.833 263.5,137.5C 265.203,136.34 265.869,137.007 265.5,139.5 Z"/></g>
<g><path style="opacity:1" fill="#403a31" d="M 242.5,129.5 C 243.038,131.117 243.371,132.784 243.5,134.5C 241.784,134.371 240.117,134.038 238.5,133.5C 234.862,132.737 233.362,134.07 234,137.5C 236.93,139.255 240.097,140.422 243.5,141C 247.531,144.001 248.531,147.834 246.5,152.5C 245.5,153.167 244.5,153.833 243.5,154.5C 239.486,154.666 235.486,154.499 231.5,154C 230.663,152.989 230.33,151.822 230.5,150.5C 232.216,150.629 233.883,150.962 235.5,151.5C 239.029,152.111 240.862,150.777 241,147.5C 240.292,146.619 239.458,145.953 238.5,145.5C 235.701,143.597 232.867,141.597 230,139.5C 229.366,136.445 229.532,133.445 230.5,130.5C 230.611,129.883 230.944,129.383 231.5,129C 235.255,128.245 238.922,128.411 242.5,129.5 Z"/></g>
<g><path style="opacity:1" fill="#f5c058" d="M 269.5,130.5 C 267.038,127.947 264.705,127.947 262.5,130.5C 258.612,136.789 255.279,143.456 252.5,150.5C 250.639,154.328 251.973,155.995 256.5,155.5C 252.786,156.358 249.119,157.691 245.5,159.5C 244.833,159.167 244.167,158.833 243.5,158.5C 245.246,156.146 247.579,155.146 250.5,155.5C 250.5,154.167 250.5,152.833 250.5,151.5C 249.041,151.433 247.708,151.766 246.5,152.5C 248.531,147.834 247.531,144.001 243.5,141C 240.097,140.422 236.93,139.255 234,137.5C 233.362,134.07 234.862,132.737 238.5,133.5C 240.011,135.441 242.011,135.941 244.5,135C 245.934,132.472 245.267,130.638 242.5,129.5C 238.922,128.411 235.255,128.245 231.5,129C 230.944,129.383 230.611,129.883 230.5,130.5C 229.542,130.953 228.708,131.619 228,132.5C 227.503,134.81 227.337,137.143 227.5,139.5C 226.702,136.047 226.368,132.547 226.5,129C 229.212,127.786 232.045,126.952 235,126.5C 238.886,126.931 242.72,127.597 246.5,128.5C 246.5,131.5 246.5,134.5 246.5,137.5C 248.942,137.119 249.609,137.786 248.5,139.5C 249.167,139.833 249.833,140.167 250.5,140.5C 251.955,139.61 253.289,139.61 254.5,140.5C 255.895,136.579 257.062,132.579 258,128.5C 259.011,129.337 260.178,129.67 261.5,129.5C 261.5,128.5 261.5,127.5 261.5,126.5C 263.857,126.337 266.19,126.503 268.5,127C 269.337,128.011 269.67,129.178 269.5,130.5 Z"/></g>
<g><path style="opacity:1" fill="#5e4725" d="M 242.5,129.5 C 245.267,130.638 245.934,132.472 244.5,135C 242.011,135.941 240.011,135.441 238.5,133.5C 240.117,134.038 241.784,134.371 243.5,134.5C 243.371,132.784 243.038,131.117 242.5,129.5 Z"/></g>
<g><path style="opacity:1" fill="#f5c15b" d="M 269.5,130.5 C 270.117,130.611 270.617,130.944 271,131.5C 271.667,134.833 272.333,138.167 273,141.5C 274.466,143.325 276.299,143.825 278.5,143C 278.167,142.667 277.833,142.333 277.5,142C 280.456,139.227 283.123,136.227 285.5,133C 290.166,131.99 292.499,133.823 292.5,138.5C 290.941,142.618 290.275,146.952 290.5,151.5C 289.167,151.5 287.833,151.5 286.5,151.5C 288.161,146.851 289.828,142.185 291.5,137.5C 291.566,135.734 290.732,134.734 289,134.5C 287.05,134.707 285.884,135.707 285.5,137.5C 283.774,141.009 282.441,144.675 281.5,148.5C 279.93,151.314 278.597,154.314 277.5,157.5C 276.686,155.369 276.186,153.036 276,150.5C 275.202,153.543 274.035,156.376 272.5,159C 270.153,159.334 267.819,159.167 265.5,158.5C 266.167,152.741 263.834,151.074 258.5,153.5C 258.611,152.883 258.944,152.383 259.5,152C 261.5,151.333 263.5,151.333 265.5,152C 265.88,154.326 266.88,156.159 268.5,157.5C 270.099,157.768 271.432,157.434 272.5,156.5C 272.513,147.92 271.513,139.254 269.5,130.5 Z"/></g>
<g><path style="opacity:1" fill="#604c22" d="M 201.5,145.5 C 201.833,145.5 202.167,145.5 202.5,145.5C 206.167,149.5 209.833,153.5 213.5,157.5C 208.5,154.5 204.5,150.5 201.5,145.5 Z"/></g>
<g><path style="opacity:1" fill="#463c2d" d="M 262.5,130.5 C 262.421,132.666 261.754,134.666 260.5,136.5C 260.876,138.803 261.876,139.137 263.5,137.5C 262.833,139.833 262.167,142.167 261.5,144.5C 262.833,144.5 264.167,144.5 265.5,144.5C 265.5,142.833 265.5,141.167 265.5,139.5C 267.616,141.088 267.949,143.088 266.5,145.5C 260.882,147.381 259.216,145.547 261.5,140C 259.414,139.443 258.081,140.276 257.5,142.5C 258.248,144.416 258.248,146.416 257.5,148.5C 260.187,148.336 262.854,148.503 265.5,149C 266.056,149.383 266.389,149.883 266.5,150.5C 261.538,148.366 258.205,149.699 256.5,154.5C 253.5,154.833 252.167,153.5 252.5,150.5C 255.279,143.456 258.612,136.789 262.5,130.5 Z"/></g>
<g><path style="opacity:1" fill="#503f1d" d="M 235.5,151.5 C 233.883,150.962 232.216,150.629 230.5,150.5C 230.33,151.822 230.663,152.989 231.5,154C 235.486,154.499 239.486,154.666 243.5,154.5C 239.077,157.107 234.577,157.107 230,154.5C 227.662,151.886 227.995,149.886 231,148.5C 232.981,148.899 234.481,149.899 235.5,151.5 Z"/></g>
<g><path style="opacity:1" fill="#514022" d="M 286.5,151.5 C 285.172,153.444 284.839,155.444 285.5,157.5C 284.414,157.38 283.747,156.713 283.5,155.5C 286.077,149.682 288.077,143.682 289.5,137.5C 288.167,137.5 286.833,137.5 285.5,137.5C 285.884,135.707 287.05,134.707 289,134.5C 290.732,134.734 291.566,135.734 291.5,137.5C 289.828,142.185 288.161,146.851 286.5,151.5 Z"/></g>
<g><path style="opacity:1" fill="#d6b064" d="M 266.5,150.5 C 267.268,152.715 267.935,155.048 268.5,157.5C 266.88,156.159 265.88,154.326 265.5,152C 263.5,151.333 261.5,151.333 259.5,152C 258.944,152.383 258.611,152.883 258.5,153.5C 258.5,154.833 257.833,155.5 256.5,155.5C 256.5,155.167 256.5,154.833 256.5,154.5C 258.205,149.699 261.538,148.366 266.5,150.5 Z"/></g>
<g><path style="opacity:1" fill="#3a3935" d="M 262.5,130.5 C 264.262,130.357 265.929,130.691 267.5,131.5C 269.919,139.683 271.586,148.017 272.5,156.5C 271.432,157.434 270.099,157.768 268.5,157.5C 267.935,155.048 267.268,152.715 266.5,150.5C 266.389,149.883 266.056,149.383 265.5,149C 262.854,148.503 260.187,148.336 257.5,148.5C 258.248,146.416 258.248,144.416 257.5,142.5C 258.081,140.276 259.414,139.443 261.5,140C 259.216,145.547 260.882,147.381 266.5,145.5C 267.949,143.088 267.616,141.088 265.5,139.5C 265.869,137.007 265.203,136.34 263.5,137.5C 261.876,139.137 260.876,138.803 260.5,136.5C 261.754,134.666 262.421,132.666 262.5,130.5 Z"/></g>
<g><path style="opacity:1" fill="#3d3935" d="M 201.5,145.5 C 204.5,150.5 208.5,154.5 213.5,157.5C 214.833,158.833 214.833,160.167 213.5,161.5C 212.448,161.649 211.448,161.483 210.5,161C 208.265,157.928 205.598,155.428 202.5,153.5C 200.5,152.167 198.833,150.5 197.5,148.5C 196.791,147.596 195.791,147.263 194.5,147.5C 194.785,149.288 194.452,150.955 193.5,152.5C 192.513,149.232 192.18,145.898 192.5,142.5C 195.817,142.664 198.817,143.664 201.5,145.5 Z"/></g>
<g><path style="opacity:1" fill="#624520" d="M 252.5,150.5 C 252.167,153.5 253.5,154.833 256.5,154.5C 256.5,154.833 256.5,155.167 256.5,155.5C 251.973,155.995 250.639,154.328 252.5,150.5 Z"/></g>
<g><path style="opacity:1" fill="#f4c057" d="M 313.5,145.5 C 311.61,145.297 310.11,145.963 309,147.5C 305.812,152.556 302.645,157.556 299.5,162.5C 296.777,164.271 296.111,166.605 297.5,169.5C 295.824,168.817 295.157,167.483 295.5,165.5C 293.801,165.62 292.135,165.954 290.5,166.5C 286.267,165.534 282.267,164.201 278.5,162.5C 278.5,161.5 278.5,160.5 278.5,159.5C 282.25,161.706 286.25,163.373 290.5,164.5C 293.082,164.253 293.915,162.92 293,160.5C 291.416,159.139 289.582,158.472 287.5,158.5C 287.158,157.662 286.492,157.328 285.5,157.5C 284.839,155.444 285.172,153.444 286.5,151.5C 286.5,153.167 286.5,154.833 286.5,156.5C 287.5,156.5 288.5,156.5 289.5,156.5C 289.117,153.538 290.117,152.538 292.5,153.5C 293.004,150.658 294.671,149.325 297.5,149.5C 297.643,151.262 297.309,152.929 296.5,154.5C 297.167,155.833 298.167,156.833 299.5,157.5C 300.58,155.004 301.914,152.67 303.5,150.5C 304.274,149.289 305.107,149.289 306,150.5C 306.289,145.119 308.789,143.452 313.5,145.5 Z"/></g>
<g><path style="opacity:1" fill="#453c2d" d="M 313.5,145.5 C 313.982,146.416 314.315,147.416 314.5,148.5C 313.749,150.996 312.749,153.33 311.5,155.5C 308.732,158.842 306.066,162.342 303.5,166C 305.911,167.955 308.411,169.789 311,171.5C 311.49,172.793 311.657,174.127 311.5,175.5C 308.812,175.834 306.479,175.168 304.5,173.5C 302.611,172.396 300.945,171.063 299.5,169.5C 298.314,167.208 298.314,164.874 299.5,162.5C 302.645,157.556 305.812,152.556 309,147.5C 310.11,145.963 311.61,145.297 313.5,145.5 Z"/></g>
<g><path style="opacity:1" fill="#4c3f28" d="M 201.5,145.5 C 198.817,143.664 195.817,142.664 192.5,142.5C 192.18,145.898 192.513,149.232 193.5,152.5C 194.452,150.955 194.785,149.288 194.5,147.5C 195.791,147.263 196.791,147.596 197.5,148.5C 196.957,148.56 196.624,148.893 196.5,149.5C 197.06,151.854 197.727,154.187 198.5,156.5C 200.261,155.965 201.594,154.965 202.5,153.5C 205.598,155.428 208.265,157.928 210.5,161C 211.448,161.483 212.448,161.649 213.5,161.5C 212.399,162.598 211.066,162.765 209.5,162C 206.991,158.162 203.991,157.995 200.5,161.5C 201.824,158.205 200.491,156.872 196.5,157.5C 196.662,155.473 196.495,153.473 196,151.5C 195.576,153.515 194.742,155.349 193.5,157C 194.287,159.099 194.62,161.266 194.5,163.5C 192.953,158.216 191.62,152.882 190.5,147.5C 189.68,143.802 191.013,141.469 194.5,140.5C 197.389,141.44 199.722,143.106 201.5,145.5 Z"/></g>
<g><path style="opacity:1" fill="#4f3e26" d="M 281.5,148.5 C 278.458,157.419 281.458,161.752 290.5,161.5C 289.66,160.265 288.66,159.265 287.5,158.5C 289.582,158.472 291.416,159.139 293,160.5C 293.915,162.92 293.082,164.253 290.5,164.5C 286.25,163.373 282.25,161.706 278.5,159.5C 277.662,159.158 277.328,158.492 277.5,157.5C 278.597,154.314 279.93,151.314 281.5,148.5 Z"/></g>
<g><path style="opacity:1" fill="#3c3835" d="M 285.5,137.5 C 286.833,137.5 288.167,137.5 289.5,137.5C 288.077,143.682 286.077,149.682 283.5,155.5C 283.747,156.713 284.414,157.38 285.5,157.5C 286.492,157.328 287.158,157.662 287.5,158.5C 288.66,159.265 289.66,160.265 290.5,161.5C 281.458,161.752 278.458,157.419 281.5,148.5C 282.441,144.675 283.774,141.009 285.5,137.5 Z"/></g>
<g><path style="opacity:1" fill="#fbc55e" d="M 159.5,138.5 C 159.461,139.583 159.127,140.583 158.5,141.5C 154.979,142.15 153.979,143.983 155.5,147C 152.993,147.093 150.826,147.926 149,149.5C 147.925,153.067 148.758,156.067 151.5,158.5C 148.871,160.05 147.037,159.384 146,156.5C 144.111,158.483 142.778,160.816 142,163.5C 141.517,162.552 141.351,161.552 141.5,160.5C 140.448,160.351 139.448,160.517 138.5,161C 139.747,162.494 139.747,163.994 138.5,165.5C 137.572,167.335 136.406,167.668 135,166.5C 134.147,168.935 133.147,171.269 132,173.5C 130.855,172.316 129.688,172.316 128.5,173.5C 136.296,159.697 146.629,148.031 159.5,138.5 Z"/></g>
<g><path style="opacity:1" fill="#634a21" d="M 299.5,162.5 C 298.314,164.874 298.314,167.208 299.5,169.5C 298.833,169.5 298.167,169.5 297.5,169.5C 296.111,166.605 296.777,164.271 299.5,162.5 Z"/></g>
<g><path style="opacity:1" fill="#f3c05a" d="M 202.5,145.5 C 208.435,148.82 213.102,153.486 216.5,159.5C 215.148,163.254 212.482,164.421 208.5,163C 206.179,161.287 205.179,162.12 205.5,165.5C 207.606,165.679 209.272,166.679 210.5,168.5C 209.833,168.833 209.167,169.167 208.5,169.5C 206.423,168.063 204.09,167.396 201.5,167.5C 201.813,170.247 201.48,172.914 200.5,175.5C 199.146,173.816 197.479,173.316 195.5,174C 195.833,174.333 196.167,174.667 196.5,175C 195.128,175.402 193.795,175.902 192.5,176.5C 189.086,179.189 185.753,181.856 182.5,184.5C 180.945,184.278 179.611,183.611 178.5,182.5C 175.548,176.537 170.881,172.871 164.5,171.5C 164.675,168.671 163.342,167.004 160.5,166.5C 161.325,165.614 162.325,165.281 163.5,165.5C 163.201,163.396 163.534,161.396 164.5,159.5C 166.761,157.827 168.428,158.16 169.5,160.5C 163.809,160.905 163.143,162.905 167.5,166.5C 171.622,171.794 175.956,176.96 180.5,182C 182.352,182.773 183.686,182.273 184.5,180.5C 186.858,178.471 189.192,176.471 191.5,174.5C 193.273,173.686 193.773,172.352 193,170.5C 191.172,169.248 189.339,169.248 187.5,170.5C 188.918,168.692 190.918,168.025 193.5,168.5C 191.349,161.683 190.349,154.683 190.5,147.5C 191.62,152.882 192.953,158.216 194.5,163.5C 193.907,166.596 194.907,168.929 197.5,170.5C 199.272,169.73 200.272,168.397 200.5,166.5C 199.954,164.865 199.62,163.199 199.5,161.5C 199.833,161.5 200.167,161.5 200.5,161.5C 203.991,157.995 206.991,158.162 209.5,162C 211.066,162.765 212.399,162.598 213.5,161.5C 214.833,160.167 214.833,158.833 213.5,157.5C 209.833,153.5 206.167,149.5 202.5,145.5 Z"/></g>
<g><path style="opacity:1" fill="#544025" d="M 191.5,174.5 C 191.5,173.5 191.5,172.5 191.5,171.5C 190.448,171.351 189.448,171.517 188.5,172C 186.946,173.892 185.112,175.392 183,176.5C 180.926,175.928 179.76,174.595 179.5,172.5C 182.912,175.369 185.579,174.703 187.5,170.5C 189.339,169.248 191.172,169.248 193,170.5C 193.773,172.352 193.273,173.686 191.5,174.5 Z"/></g>
<g><path style="opacity:1" fill="#4b3c22" d="M 199.5,161.5 C 199.62,163.199 199.954,164.865 200.5,166.5C 200.272,168.397 199.272,169.73 197.5,170.5C 194.907,168.929 193.907,166.596 194.5,163.5C 195.85,164.483 196.85,165.816 197.5,167.5C 198.169,165.369 198.835,163.369 199.5,161.5 Z"/></g>
<g><path style="opacity:1" fill="#493e25" d="M 167.5,166.5 C 169.117,167.038 170.784,167.371 172.5,167.5C 172.019,171.349 173.686,173.349 177.5,173.5C 177.545,178.212 179.878,180.545 184.5,180.5C 183.686,182.273 182.352,182.773 180.5,182C 175.956,176.96 171.622,171.794 167.5,166.5 Z"/></g>
<g><path style="opacity:1" fill="#3f3932" d="M 169.5,161.5 C 173.525,164.558 176.858,168.225 179.5,172.5C 179.76,174.595 180.926,175.928 183,176.5C 185.112,175.392 186.946,173.892 188.5,172C 189.448,171.517 190.448,171.351 191.5,171.5C 191.5,172.5 191.5,173.5 191.5,174.5C 189.192,176.471 186.858,178.471 184.5,180.5C 179.878,180.545 177.545,178.212 177.5,173.5C 173.686,173.349 172.019,171.349 172.5,167.5C 170.784,167.371 169.117,167.038 167.5,166.5C 166.962,164.883 166.629,163.216 166.5,161.5C 167.5,161.5 168.5,161.5 169.5,161.5 Z"/></g>
<g><path style="opacity:1" fill="#5d421f" d="M 169.5,160.5 C 169.5,160.833 169.5,161.167 169.5,161.5C 168.5,161.5 167.5,161.5 166.5,161.5C 166.629,163.216 166.962,164.883 167.5,166.5C 163.143,162.905 163.809,160.905 169.5,160.5 Z"/></g>
<g><path style="opacity:1" fill="#3a3839" d="M 200.5,161.5 C 200.167,161.5 199.833,161.5 199.5,161.5C 198.835,163.369 198.169,165.369 197.5,167.5C 196.85,165.816 195.85,164.483 194.5,163.5C 194.62,161.266 194.287,159.099 193.5,157C 194.742,155.349 195.576,153.515 196,151.5C 196.495,153.473 196.662,155.473 196.5,157.5C 200.491,156.872 201.824,158.205 200.5,161.5 Z"/></g>
<g><path style="opacity:1" fill="#d4b26b" d="M 197.5,148.5 C 198.833,150.5 200.5,152.167 202.5,153.5C 201.594,154.965 200.261,155.965 198.5,156.5C 197.727,154.187 197.06,151.854 196.5,149.5C 196.624,148.893 196.957,148.56 197.5,148.5 Z"/></g>
<g><path style="opacity:1" fill="#403930" d="M 339.5,169.5 C 340.048,171.394 341.048,173.06 342.5,174.5C 341.311,175.429 339.978,175.762 338.5,175.5C 336.882,173.215 334.882,171.215 332.5,169.5C 330.625,170.409 329.292,171.743 328.5,173.5C 329.389,175.736 330.722,177.736 332.5,179.5C 330.905,180.434 329.239,180.434 327.5,179.5C 326.288,178.77 325.288,177.77 324.5,176.5C 323.019,177.48 321.685,178.647 320.5,180C 322.293,182.795 324.46,185.295 327,187.5C 327.49,188.793 327.657,190.127 327.5,191.5C 326.167,191.5 324.833,191.5 323.5,191.5C 323.167,191.5 322.833,191.5 322.5,191.5C 320.275,187.765 317.442,184.432 314,181.5C 313.333,180.5 313.333,179.5 314,178.5C 315.045,177.627 315.878,176.627 316.5,175.5C 321.024,171.141 325.69,166.975 330.5,163C 331.833,162.333 333.167,162.333 334.5,163C 336.054,165.287 337.721,167.454 339.5,169.5 Z"/></g>
<g><path style="opacity:1" fill="#5d4522" d="M 339.5,169.5 C 343.911,171.759 344.411,174.425 341,177.5C 339.699,177.361 338.866,176.695 338.5,175.5C 339.978,175.762 341.311,175.429 342.5,174.5C 341.048,173.06 340.048,171.394 339.5,169.5 Z"/></g>
<g><path style="opacity:1" fill="#e6ba5f" d="M 311.5,155.5 C 310.748,159.491 309.415,163.158 307.5,166.5C 308.728,168.321 310.394,169.321 312.5,169.5C 312.5,171.5 312.5,173.5 312.5,175.5C 313.833,175.5 315.167,175.5 316.5,175.5C 315.878,176.627 315.045,177.627 314,178.5C 313.333,179.5 313.333,180.5 314,181.5C 317.442,184.432 320.275,187.765 322.5,191.5C 317.296,187.972 313.63,183.305 311.5,177.5C 309.556,176.811 307.556,176.311 305.5,176C 304.748,175.329 304.414,174.496 304.5,173.5C 306.479,175.168 308.812,175.834 311.5,175.5C 311.657,174.127 311.49,172.793 311,171.5C 308.411,169.789 305.911,167.955 303.5,166C 306.066,162.342 308.732,158.842 311.5,155.5 Z"/></g>
<g><path style="opacity:1" fill="#f8c869" d="M 360.5,159.5 C 366.98,165.785 371.98,173.118 375.5,181.5C 373.716,180.044 371.716,179.044 369.5,178.5C 369.587,175.261 368.92,172.261 367.5,169.5C 365.396,169.799 363.396,169.466 361.5,168.5C 362.167,167.833 362.833,167.167 363.5,166.5C 361.666,164.502 360.666,162.168 360.5,159.5 Z"/></g>
<g><path style="opacity:1" fill="#5c4521" d="M 328.5,173.5 C 331.833,175.159 333.5,177.825 333.5,181.5C 330.803,183.045 328.803,182.379 327.5,179.5C 329.239,180.434 330.905,180.434 332.5,179.5C 330.722,177.736 329.389,175.736 328.5,173.5 Z"/></g>
<g><path style="opacity:1" fill="#f8ca7a" d="M 128.5,173.5 C 126.343,178.484 124.176,183.484 122,188.5C 121.329,189.252 120.496,189.586 119.5,189.5C 121.491,183.511 124.491,178.177 128.5,173.5 Z"/></g>
<g><path style="opacity:1" fill="#ebbb5b" d="M 327.5,179.5 C 328.803,182.379 330.803,183.045 333.5,181.5C 332.172,183.745 330.339,184.078 328,182.5C 328.201,185.777 328.368,189.111 328.5,192.5C 326.585,192.784 324.919,192.451 323.5,191.5C 324.833,191.5 326.167,191.5 327.5,191.5C 327.657,190.127 327.49,188.793 327,187.5C 324.46,185.295 322.293,182.795 320.5,180C 321.685,178.647 323.019,177.48 324.5,176.5C 325.288,177.77 326.288,178.77 327.5,179.5 Z"/></g>
<g><path style="opacity:1" fill="#eebe63" d="M 294.5,199.5 C 290.577,196.706 286.243,194.706 281.5,193.5C 260.337,192.337 239.004,192.171 217.5,193C 216.263,193.232 215.263,193.732 214.5,194.5C 208.624,196.378 204.291,200.045 201.5,205.5C 200.272,206.306 199.272,207.306 198.5,208.5C 198.477,206.4 199.144,204.567 200.5,203C 199.373,201.943 198.873,200.777 199,199.5C 200.117,199.665 201.284,199.998 202.5,200.5C 203.167,198.833 203.833,197.167 204.5,195.5C 205.891,196.645 207.224,196.645 208.5,195.5C 207.524,193.877 208.024,192.543 210,191.5C 210.893,192.081 211.893,192.415 213,192.5C 225.086,191.217 237.253,190.55 249.5,190.5C 260.833,190.667 272.167,190.833 283.5,191C 286.378,193.851 289.712,194.851 293.5,194C 292.833,194.667 292.167,195.333 291.5,196C 292.71,197.039 293.71,198.206 294.5,199.5 Z"/></g>
<g><path style="opacity:1" fill="#593f15" d="M 159.5,190.5 C 161.341,194.469 160.175,195.803 156,194.5C 155.506,192.866 155.34,191.199 155.5,189.5C 157.099,189.232 158.432,189.566 159.5,190.5 Z"/></g>
<g><path style="opacity:1" fill="#403531" d="M 159.5,190.5 C 159.5,191.5 159.5,192.5 159.5,193.5C 158.5,193.5 157.5,193.5 156.5,193.5C 156.5,192.5 156.5,191.5 156.5,190.5C 157.5,190.5 158.5,190.5 159.5,190.5 Z"/></g>
<g><path style="opacity:1" fill="#4d3711" d="M 281.5,193.5 C 260.327,193.169 239.327,193.503 218.5,194.5C 217.833,194.5 217.167,194.5 216.5,194.5C 215.833,194.5 215.167,194.5 214.5,194.5C 215.263,193.732 216.263,193.232 217.5,193C 239.004,192.171 260.337,192.337 281.5,193.5 Z"/></g>
<g><path style="opacity:1" fill="#4c3b1f" d="M 337.5,189.5 C 339.167,189.5 340.833,189.5 342.5,189.5C 342.5,191.167 342.5,192.833 342.5,194.5C 340.833,194.5 339.167,194.5 337.5,194.5C 337.5,192.833 337.5,191.167 337.5,189.5 Z"/></g>
<g><path style="opacity:1" fill="#443e32" d="M 216.5,194.5 C 217.167,194.5 217.833,194.5 218.5,194.5C 240.169,194.333 261.836,194.5 283.5,195C 284.337,196.011 284.67,197.178 284.5,198.5C 282.833,198.5 281.167,198.5 279.5,198.5C 259.5,198.5 239.5,198.5 219.5,198.5C 216.046,198.733 215.046,197.4 216.5,194.5 Z"/></g>
<g><path style="opacity:1" fill="#453c29" d="M 218.5,194.5 C 239.327,193.503 260.327,193.169 281.5,193.5C 286.243,194.706 290.577,196.706 294.5,199.5C 295.5,200.833 296.5,202.167 297.5,203.5C 298.6,204.605 299.267,205.938 299.5,207.5C 297.326,204.493 294.659,201.993 291.5,200C 289.833,199.333 288.167,199.333 286.5,200C 288.407,201.069 289.741,202.569 290.5,204.5C 287.215,202.025 283.548,200.358 279.5,199.5C 279.5,199.167 279.5,198.833 279.5,198.5C 281.167,198.5 282.833,198.5 284.5,198.5C 284.67,197.178 284.337,196.011 283.5,195C 261.836,194.5 240.169,194.333 218.5,194.5 Z"/></g>
<g><path style="opacity:1" fill="#edc26f" d="M 219.5,198.5 C 239.5,198.5 259.5,198.5 279.5,198.5C 279.5,198.833 279.5,199.167 279.5,199.5C 264.167,199.5 248.833,199.5 233.5,199.5C 227.804,199.447 222.138,199.78 216.5,200.5C 217.5,199.833 218.5,199.167 219.5,198.5 Z"/></g>
<g><path style="opacity:1" fill="#f4cd80" d="M 119.5,189.5 C 118.837,195.142 116.837,200.142 113.5,204.5C 114.738,199.105 116.738,194.105 119.5,189.5 Z"/></g>
<g><path style="opacity:1" fill="#443c2a" d="M 214.5,194.5 C 215.167,194.5 215.833,194.5 216.5,194.5C 215.046,197.4 216.046,198.733 219.5,198.5C 218.5,199.167 217.5,199.833 216.5,200.5C 212.632,202.029 209.299,204.363 206.5,207.5C 206.215,203.189 204.549,202.522 201.5,205.5C 204.291,200.045 208.624,196.378 214.5,194.5 Z"/></g>
<g><path style="opacity:1" fill="#f7c057" d="M 233.5,199.5 C 248.833,199.5 264.167,199.5 279.5,199.5C 283.548,200.358 287.215,202.025 290.5,204.5C 290.833,205.167 291.167,205.833 291.5,206.5C 287.741,205.454 284.408,203.62 281.5,201C 268.5,200.333 255.5,200.333 242.5,201C 245.925,202.249 249.258,203.749 252.5,205.5C 253.706,207.484 253.706,209.484 252.5,211.5C 254.838,213.049 254.338,214.049 251,214.5C 249.632,213.297 248.132,212.297 246.5,211.5C 245.459,213.991 244.626,213.991 244,211.5C 244.32,214.46 244.32,217.46 244,220.5C 242.267,222.602 240.267,222.935 238,221.5C 233.013,207.194 228.846,207.194 225.5,221.5C 225.768,219.901 225.434,218.568 224.5,217.5C 223.597,215.38 222.263,215.046 220.5,216.5C 222.408,214.976 224.575,213.643 227,212.5C 227.424,210.485 228.258,208.651 229.5,207C 227.424,205.756 226.424,203.923 226.5,201.5C 232.187,203.55 238.021,205.55 244,207.5C 244.5,207.167 245,206.833 245.5,206.5C 243.639,205.472 242.305,203.972 241.5,202C 238.69,201.218 236.023,200.384 233.5,199.5 Z"/></g>
<g><path style="opacity:1" fill="#fdc350" d="M 233.5,199.5 C 236.023,200.384 238.69,201.218 241.5,202C 242.305,203.972 243.639,205.472 245.5,206.5C 245,206.833 244.5,207.167 244,207.5C 238.021,205.55 232.187,203.55 226.5,201.5C 226.424,203.923 227.424,205.756 229.5,207C 228.258,208.651 227.424,210.485 227,212.5C 224.575,213.643 222.408,214.976 220.5,216.5C 220.5,216.833 220.5,217.167 220.5,217.5C 219.566,218.568 219.232,219.901 219.5,221.5C 221.5,221.5 223.5,221.5 225.5,221.5C 228.846,207.194 233.013,207.194 238,221.5C 240.267,222.935 242.267,222.602 244,220.5C 244.32,217.46 244.32,214.46 244,211.5C 244.626,213.991 245.459,213.991 246.5,211.5C 248.132,212.297 249.632,213.297 251,214.5C 254.338,214.049 254.838,213.049 252.5,211.5C 253.706,209.484 253.706,207.484 252.5,205.5C 249.258,203.749 245.925,202.249 242.5,201C 255.5,200.333 268.5,200.333 281.5,201C 284.408,203.62 287.741,205.454 291.5,206.5C 293.588,208.336 294.921,210.669 295.5,213.5C 296.254,218.463 296.587,223.463 296.5,228.5C 265.5,228.5 234.5,228.5 203.5,228.5C 203.837,223.462 204.504,218.462 205.5,213.5C 209.344,209.156 213.011,204.823 216.5,200.5C 222.138,199.78 227.804,199.447 233.5,199.5 Z"/></g>
<g><path style="opacity:1" fill="#483823" d="M 201.5,205.5 C 198.418,214.893 197.085,224.56 197.5,234.5C 196.511,229.025 196.178,223.358 196.5,217.5C 196.756,214.402 197.422,211.402 198.5,208.5C 199.272,207.306 200.272,206.306 201.5,205.5 Z"/></g>
<g><path style="opacity:1" fill="#513d20" d="M 299.5,207.5 C 301.163,209.493 302.33,211.826 303,214.5C 303.821,221.346 303.654,228.013 302.5,234.5C 302.666,228.158 302.5,221.825 302,215.5C 300.293,213.091 299.46,210.425 299.5,207.5 Z"/></g>
<g><path style="opacity:1" fill="#f1c269" d="M 216.5,200.5 C 213.011,204.823 209.344,209.156 205.5,213.5C 204.504,218.462 203.837,223.462 203.5,228.5C 234.5,228.5 265.5,228.5 296.5,228.5C 296.5,228.833 296.5,229.167 296.5,229.5C 265.167,229.5 233.833,229.5 202.5,229.5C 202.5,225.167 202.5,220.833 202.5,216.5C 203.234,215.292 203.567,213.959 203.5,212.5C 204.89,211.101 205.89,209.434 206.5,207.5C 209.299,204.363 212.632,202.029 216.5,200.5 Z"/></g>
<g><path style="opacity:1" fill="#a7854e" d="M 196.5,217.5 C 196.178,223.358 196.511,229.025 197.5,234.5C 197.5,234.833 197.5,235.167 197.5,235.5C 196.184,232.913 195.517,229.913 195.5,226.5C 195.502,223.314 195.835,220.314 196.5,217.5 Z"/></g>
<g><path style="opacity:1" fill="#3b3834" d="M 299.5,207.5 C 299.46,210.425 300.293,213.091 302,215.5C 302.5,221.825 302.666,228.158 302.5,234.5C 267.671,235.498 232.671,235.832 197.5,235.5C 197.5,235.167 197.5,234.833 197.5,234.5C 197.085,224.56 198.418,214.893 201.5,205.5C 204.549,202.522 206.215,203.189 206.5,207.5C 204.259,208.3 203.259,209.966 203.5,212.5C 203.567,213.959 203.234,215.292 202.5,216.5C 201.514,220.97 201.181,225.637 201.5,230.5C 233.671,230.832 265.671,230.498 297.5,229.5C 297.666,225.154 297.499,220.821 297,216.5C 296.768,215.263 296.268,214.263 295.5,213.5C 294.921,210.669 293.588,208.336 291.5,206.5C 291.167,205.833 290.833,205.167 290.5,204.5C 289.741,202.569 288.407,201.069 286.5,200C 288.167,199.333 289.833,199.333 291.5,200C 294.659,201.993 297.326,204.493 299.5,207.5 Z"/></g>
<g><path style="opacity:1" fill="#4a3b1d" d="M 202.5,216.5 C 202.5,220.833 202.5,225.167 202.5,229.5C 233.833,229.5 265.167,229.5 296.5,229.5C 296.833,229.5 297.167,229.5 297.5,229.5C 265.671,230.498 233.671,230.832 201.5,230.5C 201.181,225.637 201.514,220.97 202.5,216.5 Z"/></g>
<g><path style="opacity:1" fill="#bb9950" d="M 295.5,213.5 C 296.268,214.263 296.768,215.263 297,216.5C 297.499,220.821 297.666,225.154 297.5,229.5C 297.167,229.5 296.833,229.5 296.5,229.5C 296.5,229.167 296.5,228.833 296.5,228.5C 296.587,223.463 296.254,218.463 295.5,213.5 Z"/></g>
<g><path style="opacity:1" fill="#be9953" d="M 220.5,217.5 C 220.5,218.5 220.5,219.5 220.5,220.5C 221.833,220.5 223.167,220.5 224.5,220.5C 224.5,219.5 224.5,218.5 224.5,217.5C 225.434,218.568 225.768,219.901 225.5,221.5C 223.5,221.5 221.5,221.5 219.5,221.5C 219.232,219.901 219.566,218.568 220.5,217.5 Z"/></g>
<g><path style="opacity:1" fill="#5a4621" d="M 275.5,215.5 C 279.35,215.701 280.35,217.534 278.5,221C 274.537,221.118 273.537,219.284 275.5,215.5 Z"/></g>
<g><path style="opacity:1" fill="#55431d" d="M 239.5,215.5 C 244.197,216.874 244.531,218.874 240.5,221.5C 238.261,219.867 237.928,217.867 239.5,215.5 Z"/></g>
<g><path style="opacity:1" fill="#49381f" d="M 224.5,217.5 C 224.5,218.5 224.5,219.5 224.5,220.5C 223.167,220.5 221.833,220.5 220.5,220.5C 220.5,219.5 220.5,218.5 220.5,217.5C 220.5,217.167 220.5,216.833 220.5,216.5C 222.263,215.046 223.597,215.38 224.5,217.5 Z"/></g>
<g><path style="opacity:1" fill="#564725" d="M 257.5,215.5 C 261.35,215.701 262.35,217.534 260.5,221C 256.537,221.118 255.537,219.284 257.5,215.5 Z"/></g>
<g><path style="opacity:1" fill="#513e17" d="M 233.5,205.5 C 236.084,206.048 237.084,207.715 236.5,210.5C 235.167,210.5 233.833,210.5 232.5,210.5C 232.366,208.708 232.699,207.042 233.5,205.5 Z"/></g>
<g><path style="opacity:1" fill="#4d411f" d="M 206.5,207.5 C 205.89,209.434 204.89,211.101 203.5,212.5C 203.259,209.966 204.259,208.3 206.5,207.5 Z"/></g>
<g><path style="opacity:1" fill="#513b24" d="M 263.5,205.5 C 267.161,205.35 268.161,206.85 266.5,210C 262.707,210.487 261.707,208.987 263.5,205.5 Z"/></g>
<g><path style="opacity:1" fill="#56411b" d="M 247.5,206.5 C 249.167,206.5 250.833,206.5 252.5,206.5C 252.616,209.91 250.95,211.244 247.5,210.5C 247.5,209.167 247.5,207.833 247.5,206.5 Z"/></g>
<g><path style="opacity:1" fill="#e8b85a" d="M 312.5,256.5 C 311.833,256.167 311.167,255.833 310.5,255.5C 308.819,253.992 306.819,252.992 304.5,252.5C 295.5,251.833 286.5,251.167 277.5,250.5C 278.627,249.878 279.627,249.045 280.5,248C 287.346,247.828 294.013,247.328 300.5,246.5C 302.582,245.415 302.916,243.915 301.5,242C 294.174,241.5 286.841,241.334 279.5,241.5C 279.611,240.883 279.944,240.383 280.5,240C 285.018,239.935 289.351,239.269 293.5,238C 263.833,237.667 234.167,237.333 204.5,237C 201.964,236.814 199.631,236.314 197.5,235.5C 232.671,235.832 267.671,235.498 302.5,234.5C 303.654,228.013 303.821,221.346 303,214.5C 302.33,211.826 301.163,209.493 299.5,207.5C 299.267,205.938 298.6,204.605 297.5,203.5C 298.496,203.586 299.329,203.252 300,202.5C 300.333,203.833 300.667,205.167 301,206.5C 302.333,207.167 303.333,208.167 304,209.5C 304.793,218.702 304.626,227.869 303.5,237C 304.093,238.882 305.427,239.882 307.5,240C 305.047,241.848 304.047,244.348 304.5,247.5C 296.367,247.935 288.367,248.768 280.5,250C 289.5,250.333 298.5,250.667 307.5,251C 311.095,251.122 312.761,252.956 312.5,256.5 Z"/></g>
<g><path style="opacity:1" fill="#f5c973" d="M 385.5,205.5 C 390.796,219.56 393.13,234.226 392.5,249.5C 393.162,265.865 390.495,281.531 384.5,296.5C 385.516,287.966 387.183,279.633 389.5,271.5C 390.666,256.845 390.833,242.178 390,227.5C 388.043,220.322 386.543,212.989 385.5,205.5 Z"/></g>
<g><path style="opacity:1" fill="#624d2c" d="M 225.5,246.5 C 223.391,245.609 221.391,244.442 219.5,243C 212.508,242.5 205.508,242.334 198.5,242.5C 198.5,243.833 198.5,245.167 198.5,246.5C 205.022,246.177 211.355,246.51 217.5,247.5C 210.825,247.666 204.158,247.5 197.5,247C 196.248,245.172 196.248,243.339 197.5,241.5C 204.754,240.37 212.087,240.204 219.5,241C 221.763,242.617 223.763,244.45 225.5,246.5 Z"/></g>
<g><path style="opacity:1" fill="#483820" d="M 279.5,241.5 C 286.841,241.334 294.174,241.5 301.5,242C 302.916,243.915 302.582,245.415 300.5,246.5C 300.5,245.167 300.5,243.833 300.5,242.5C 292.778,242.233 285.111,242.566 277.5,243.5C 277.833,242.5 278.5,241.833 279.5,241.5 Z"/></g>
<g><path style="opacity:1" fill="#f5c86f" d="M 113.5,205.5 C 112.527,213.59 111.027,221.59 109,229.5C 108.333,243.5 108.333,257.5 109,271.5C 111.336,277.983 113.17,284.65 114.5,291.5C 113.728,290.306 112.728,289.306 111.5,288.5C 106.301,267.787 105.134,246.787 108,225.5C 108.924,218.461 110.757,211.794 113.5,205.5 Z"/></g>
<g><path style="opacity:1" fill="#ecbe61" d="M 197.5,241.5 C 196.248,243.339 196.248,245.172 197.5,247C 204.158,247.5 210.825,247.666 217.5,247.5C 217.833,247.5 218.167,247.5 218.5,247.5C 219.167,248.833 220.167,249.833 221.5,250.5C 212.833,251.167 204.167,251.833 195.5,252.5C 194.209,252.263 193.209,252.596 192.5,253.5C 187.26,255.467 184.927,259.3 185.5,265C 185.532,269.899 187.532,273.733 191.5,276.5C 188.358,276.201 186.191,274.534 185,271.5C 183.905,264.375 184.738,257.541 187.5,251C 197.833,250.667 208.167,250.333 218.5,250C 211.334,248.702 204,248.035 196.5,248C 193.598,245.136 193.932,242.969 197.5,241.5 Z"/></g>
<g><path style="opacity:1" fill="#997f4e" d="M 221.5,250.5 C 222.289,250.783 222.956,251.283 223.5,252C 214.173,252.5 204.839,252.666 195.5,252.5C 204.167,251.833 212.833,251.167 221.5,250.5 Z"/></g>
<g><path style="opacity:1" fill="#997f4a" d="M 277.5,250.5 C 286.5,251.167 295.5,251.833 304.5,252.5C 295.167,252.5 285.833,252.5 276.5,252.5C 275.561,251.673 275.895,251.006 277.5,250.5 Z"/></g>
<g><path style="opacity:1" fill="#433823" d="M 218.5,247.5 C 220.472,248.451 222.472,249.451 224.5,250.5C 225.641,251.425 225.641,252.259 224.5,253C 215.632,253.208 206.798,253.708 198,254.5C 196.234,253.767 194.401,253.433 192.5,253.5C 193.209,252.596 194.209,252.263 195.5,252.5C 204.839,252.666 214.173,252.5 223.5,252C 222.956,251.283 222.289,250.783 221.5,250.5C 220.167,249.833 219.167,248.833 218.5,247.5 Z"/></g>
<g><path style="opacity:1" fill="#463920" d="M 276.5,252.5 C 285.833,252.5 295.167,252.5 304.5,252.5C 306.819,252.992 308.819,253.992 310.5,255.5C 299.07,254.076 287.737,253.076 276.5,252.5 Z"/></g>
<g><path style="opacity:1" fill="#3d3a36" d="M 300.5,246.5 C 294.013,247.328 287.346,247.828 280.5,248C 279.627,249.045 278.627,249.878 277.5,250.5C 275.895,251.006 275.561,251.673 276.5,252.5C 287.737,253.076 299.07,254.076 310.5,255.5C 311.167,255.833 311.833,256.167 312.5,256.5C 312.5,256.833 312.5,257.167 312.5,257.5C 312.5,257.833 312.5,258.167 312.5,258.5C 312.817,261.572 312.484,264.572 311.5,267.5C 310.686,265.234 310.186,262.9 310,260.5C 309.667,260.833 309.333,261.167 309,261.5C 308.578,259.574 307.411,258.574 305.5,258.5C 305.389,257.883 305.056,257.383 304.5,257C 290.634,256.193 276.801,256.359 263,257.5C 262.5,257.167 262,256.833 261.5,256.5C 264.182,255.818 265.848,254.152 266.5,251.5C 269.601,248.067 273.268,245.4 277.5,243.5C 285.111,242.566 292.778,242.233 300.5,242.5C 300.5,243.833 300.5,245.167 300.5,246.5 Z"/></g>
<g><path style="opacity:1" fill="#503d21" d="M 192.5,253.5 C 183.826,262.775 184.826,270.775 195.5,277.5C 194.167,277.167 192.833,276.833 191.5,276.5C 187.532,273.733 185.532,269.899 185.5,265C 184.927,259.3 187.26,255.467 192.5,253.5 Z"/></g>
<g><path style="opacity:1" fill="#e3b257" d="M 305.5,258.5 C 307.16,260.322 308.16,262.489 308.5,265C 308.613,266.699 307.947,267.866 306.5,268.5C 306.662,266.473 306.495,264.473 306,262.5C 303.876,261.773 301.709,261.106 299.5,260.5C 289.68,260.263 279.847,260.596 270,261.5C 268.951,259.893 267.451,259.227 265.5,259.5C 265.611,258.883 265.944,258.383 266.5,258C 279.545,257.204 292.545,257.371 305.5,258.5 Z"/></g>
<g><path style="opacity:1" fill="#3b3935" d="M 225.5,246.5 C 227.777,247.449 229.777,248.782 231.5,250.5C 231.84,252.679 232.84,254.512 234.5,256C 221.167,256.333 207.833,256.667 194.5,257C 192.859,258.129 191.859,259.629 191.5,261.5C 191.337,263.857 191.503,266.19 192,268.5C 192.383,269.056 192.883,269.389 193.5,269.5C 193.5,269.833 193.5,270.167 193.5,270.5C 211.821,271.833 230.488,272.5 249.5,272.5C 268.512,272.5 287.179,271.833 305.5,270.5C 306.967,270.106 308.467,269.773 310,269.5C 311.376,269.684 312.209,270.351 312.5,271.5C 310.619,274.452 307.952,276.452 304.5,277.5C 303.056,279.608 302.39,281.941 302.5,284.5C 302.5,285.167 302.167,285.5 301.5,285.5C 299.836,286.743 298.669,288.41 298,290.5C 297.075,289.953 296.242,289.287 295.5,288.5C 296.946,286.382 297.613,284.049 297.5,281.5C 297.5,280.167 297.5,278.833 297.5,277.5C 265.833,277.5 234.167,277.5 202.5,277.5C 200.5,277.5 198.5,277.5 196.5,277.5C 196.167,277.5 195.833,277.5 195.5,277.5C 184.826,270.775 183.826,262.775 192.5,253.5C 194.401,253.433 196.234,253.767 198,254.5C 206.798,253.708 215.632,253.208 224.5,253C 225.641,252.259 225.641,251.425 224.5,250.5C 222.472,249.451 220.472,248.451 218.5,247.5C 218.167,247.5 217.833,247.5 217.5,247.5C 211.355,246.51 205.022,246.177 198.5,246.5C 198.5,245.167 198.5,243.833 198.5,242.5C 205.508,242.334 212.508,242.5 219.5,243C 221.391,244.442 223.391,245.609 225.5,246.5 Z"/></g>
<g><path style="opacity:1" fill="#443b2b" d="M 231.5,250.5 C 237.754,254.082 243.754,258.082 249.5,262.5C 255.053,258.563 260.72,254.896 266.5,251.5C 265.848,254.152 264.182,255.818 261.5,256.5C 262,256.833 262.5,257.167 263,257.5C 276.801,256.359 290.634,256.193 304.5,257C 305.056,257.383 305.389,257.883 305.5,258.5C 292.545,257.371 279.545,257.204 266.5,258C 265.944,258.383 265.611,258.883 265.5,259.5C 260.5,262.833 255.5,266.167 250.5,269.5C 249.833,269.5 249.167,269.5 248.5,269.5C 243.045,265.885 237.712,262.052 232.5,258C 220.167,257.333 207.833,257.333 195.5,258C 194.295,259.376 192.962,260.542 191.5,261.5C 191.859,259.629 192.859,258.129 194.5,257C 207.833,256.667 221.167,256.333 234.5,256C 232.84,254.512 231.84,252.679 231.5,250.5 Z"/></g>
<g><path style="opacity:1" fill="#fcc352" d="M 265.5,259.5 C 267.451,259.227 268.951,259.893 270,261.5C 279.847,260.596 289.68,260.263 299.5,260.5C 301.709,261.106 303.876,261.773 306,262.5C 306.495,264.473 306.662,266.473 306.5,268.5C 306.167,269.167 305.833,269.833 305.5,270.5C 304.833,270.5 304.167,270.5 303.5,270.5C 285.659,270.83 267.992,270.497 250.5,269.5C 255.5,266.167 260.5,262.833 265.5,259.5 Z"/></g>
<g><path style="opacity:1" fill="#f1bb54" d="M 248.5,269.5 C 231.5,270.833 214.5,270.833 197.5,269.5C 205.507,269.666 213.507,269.5 221.5,269C 223.316,267.685 224.983,266.185 226.5,264.5C 227.891,265.645 229.224,265.645 230.5,264.5C 229.675,263.614 228.675,263.281 227.5,263.5C 227.5,262.5 227.5,261.5 227.5,260.5C 219.493,260.334 211.493,260.5 203.5,261C 202.845,262.487 201.845,263.653 200.5,264.5C 198.317,262.941 196.151,262.274 194,262.5C 193.549,265.314 194.382,267.647 196.5,269.5C 195.5,269.5 194.5,269.5 193.5,269.5C 192.883,269.389 192.383,269.056 192,268.5C 191.503,266.19 191.337,263.857 191.5,261.5C 192.962,260.542 194.295,259.376 195.5,258C 207.833,257.333 220.167,257.333 232.5,258C 237.712,262.052 243.045,265.885 248.5,269.5 Z"/></g>
<g><path style="opacity:1" fill="#fdc44f" d="M 197.5,269.5 C 197.167,269.5 196.833,269.5 196.5,269.5C 194.382,267.647 193.549,265.314 194,262.5C 196.151,262.274 198.317,262.941 200.5,264.5C 201.845,263.653 202.845,262.487 203.5,261C 211.493,260.5 219.493,260.334 227.5,260.5C 227.5,261.5 227.5,262.5 227.5,263.5C 228.675,263.281 229.675,263.614 230.5,264.5C 229.224,265.645 227.891,265.645 226.5,264.5C 224.983,266.185 223.316,267.685 221.5,269C 213.507,269.5 205.507,269.666 197.5,269.5 Z"/></g>
<g><path style="opacity:1" fill="#453c2a" d="M 305.5,258.5 C 307.411,258.574 308.578,259.574 309,261.5C 309.333,261.167 309.667,260.833 310,260.5C 310.186,262.9 310.686,265.234 311.5,267.5C 312.484,264.572 312.817,261.572 312.5,258.5C 313.833,262.833 313.833,267.167 312.5,271.5C 312.209,270.351 311.376,269.684 310,269.5C 308.467,269.773 306.967,270.106 305.5,270.5C 305.833,269.833 306.167,269.167 306.5,268.5C 307.947,267.866 308.613,266.699 308.5,265C 308.16,262.489 307.16,260.322 305.5,258.5 Z"/></g>
<g><path style="opacity:1" fill="#c8a055" d="M 193.5,270.5 C 193.5,270.167 193.5,269.833 193.5,269.5C 194.5,269.5 195.5,269.5 196.5,269.5C 196.833,269.5 197.167,269.5 197.5,269.5C 214.5,270.833 231.5,270.833 248.5,269.5C 249.167,269.5 249.833,269.5 250.5,269.5C 267.992,270.497 285.659,270.83 303.5,270.5C 266.961,271.823 230.294,271.823 193.5,270.5 Z"/></g>
<g><path style="opacity:1" fill="#45371f" d="M 193.5,270.5 C 230.294,271.823 266.961,271.823 303.5,270.5C 304.167,270.5 304.833,270.5 305.5,270.5C 287.179,271.833 268.512,272.5 249.5,272.5C 230.488,272.5 211.821,271.833 193.5,270.5 Z"/></g>
<g><path style="opacity:1" fill="#f2be5b" d="M 312.5,258.5 C 312.5,258.167 312.5,257.833 312.5,257.5C 313.809,259.571 314.475,262.071 314.5,265C 314.737,268.441 314.071,271.607 312.5,274.5C 315.073,276.785 317.407,278.618 319.5,280C 319.167,280.5 318.833,281 318.5,281.5C 316.063,280.074 313.563,278.741 311,277.5C 309.103,279.016 306.936,279.683 304.5,279.5C 304.88,281.698 304.213,283.365 302.5,284.5C 302.39,281.941 303.056,279.608 304.5,277.5C 307.952,276.452 310.619,274.452 312.5,271.5C 313.833,267.167 313.833,262.833 312.5,258.5 Z"/></g>
<g><path style="opacity:1" fill="#ebc06c" d="M 202.5,277.5 C 234.167,277.5 265.833,277.5 297.5,277.5C 297.5,278.833 297.5,280.167 297.5,281.5C 296.833,282.167 296.167,282.833 295.5,283.5C 295.5,281.833 295.5,280.167 295.5,278.5C 265.167,278.5 234.833,278.5 204.5,278.5C 204.338,280.527 204.505,282.527 205,284.5C 206.602,286.646 207.768,288.98 208.5,291.5C 204.382,287.835 202.382,283.168 202.5,277.5 Z"/></g>
<g><path style="opacity:1" fill="#fdc350" d="M 295.5,283.5 C 293.395,291.938 288.061,296.938 279.5,298.5C 260.497,298.667 241.497,298.5 222.5,298C 221.692,297.692 221.025,297.192 220.5,296.5C 221.641,295.575 221.641,294.741 220.5,294C 218.717,293.768 217.05,294.268 215.5,295.5C 213.156,294.149 210.822,292.816 208.5,291.5C 207.768,288.98 206.602,286.646 205,284.5C 204.505,282.527 204.338,280.527 204.5,278.5C 234.833,278.5 265.167,278.5 295.5,278.5C 295.5,280.167 295.5,281.833 295.5,283.5 Z"/></g>
<g><path style="opacity:1" fill="#eabc61" d="M 191.5,276.5 C 192.833,276.833 194.167,277.167 195.5,277.5C 195.833,277.5 196.167,277.5 196.5,277.5C 196.672,282.348 197.672,287.015 199.5,291.5C 197.957,290.264 196.957,288.598 196.5,286.5C 195.624,285.749 194.624,285.249 193.5,285C 194.423,282.959 194.756,280.792 194.5,278.5C 192.821,278.715 191.821,278.048 191.5,276.5 Z"/></g>
<g><path style="opacity:1" fill="#5b4b33" d="M 297.5,281.5 C 297.613,284.049 296.946,286.382 295.5,288.5C 296.242,289.287 297.075,289.953 298,290.5C 298.669,288.41 299.836,286.743 301.5,285.5C 299.713,292.745 295.713,298.412 289.5,302.5C 288.833,302.5 288.167,302.5 287.5,302.5C 287.5,301.5 287.5,300.5 287.5,299.5C 288.833,299.5 290.167,299.5 291.5,299.5C 291.762,298.022 291.429,296.689 290.5,295.5C 285.859,299.311 280.525,300.978 274.5,300.5C 256.833,300.5 239.167,300.5 221.5,300.5C 221.5,300.167 221.5,299.833 221.5,299.5C 241.007,299.83 260.341,299.497 279.5,298.5C 288.061,296.938 293.395,291.938 295.5,283.5C 296.167,282.833 296.833,282.167 297.5,281.5 Z"/></g>
<g><path style="opacity:1" fill="#493e2b" d="M 196.5,277.5 C 198.5,277.5 200.5,277.5 202.5,277.5C 202.382,283.168 204.382,287.835 208.5,291.5C 211.698,295.936 216.031,298.602 221.5,299.5C 221.5,299.833 221.5,300.167 221.5,300.5C 220.127,300.343 218.793,300.51 217.5,301C 216.359,301.741 216.359,302.575 217.5,303.5C 238.159,304.666 258.825,304.833 279.5,304C 278.672,303.085 277.672,302.419 276.5,302C 280.188,301.55 283.854,301.717 287.5,302.5C 283.89,304.574 279.89,305.741 275.5,306C 258.17,306.5 240.837,306.667 223.5,306.5C 213.254,305.046 205.254,300.046 199.5,291.5C 197.672,287.015 196.672,282.348 196.5,277.5 Z"/></g>
<g><path style="opacity:1" fill="#f5c264" d="M 208.5,291.5 C 210.822,292.816 213.156,294.149 215.5,295.5C 217.05,294.268 218.717,293.768 220.5,294C 221.641,294.741 221.641,295.575 220.5,296.5C 221.025,297.192 221.692,297.692 222.5,298C 241.497,298.5 260.497,298.667 279.5,298.5C 260.341,299.497 241.007,299.83 221.5,299.5C 216.031,298.602 211.698,295.936 208.5,291.5 Z"/></g>
<g><path style="opacity:1" fill="#383838" d="M 287.5,302.5 C 283.854,301.717 280.188,301.55 276.5,302C 277.672,302.419 278.672,303.085 279.5,304C 258.825,304.833 238.159,304.666 217.5,303.5C 216.359,302.575 216.359,301.741 217.5,301C 218.793,300.51 220.127,300.343 221.5,300.5C 229.472,301.831 237.806,302.498 246.5,302.5C 254.833,302.333 263.167,302.167 271.5,302C 272.737,301.768 273.737,301.268 274.5,300.5C 280.525,300.978 285.859,299.311 290.5,295.5C 291.429,296.689 291.762,298.022 291.5,299.5C 290.167,299.5 288.833,299.5 287.5,299.5C 287.5,300.5 287.5,301.5 287.5,302.5 Z"/></g>
<g><path style="opacity:1" fill="#3f382c" d="M 221.5,300.5 C 239.167,300.5 256.833,300.5 274.5,300.5C 273.737,301.268 272.737,301.768 271.5,302C 263.167,302.167 254.833,302.333 246.5,302.5C 237.806,302.498 229.472,301.831 221.5,300.5 Z"/></g>
<g><path style="opacity:1" fill="#443b2f" d="M 167.5,310.5 C 168.038,312.117 168.371,313.784 168.5,315.5C 167.5,315.5 166.5,315.5 165.5,315.5C 164.115,314.426 162.949,313.093 162,311.5C 159.354,314.246 156.188,315.413 152.5,315C 151.663,313.989 151.33,312.822 151.5,311.5C 157.5,307.5 163.5,303.5 169.5,299.5C 171.936,297.983 174.102,298.316 176,300.5C 177.667,303.167 179.333,305.833 181,308.5C 181.494,310.134 181.66,311.801 181.5,313.5C 180.022,313.762 178.689,313.429 177.5,312.5C 176.14,309.772 174.307,307.439 172,305.5C 168.879,305.792 167.379,307.459 167.5,310.5 Z"/></g>
<g><path style="opacity:1" fill="#ecc06b" d="M 287.5,302.5 C 288.167,302.5 288.833,302.5 289.5,302.5C 289.279,303.735 288.612,304.735 287.5,305.5C 283.878,306.325 280.211,306.825 276.5,307C 258.662,307.829 240.995,307.662 223.5,306.5C 240.837,306.667 258.17,306.5 275.5,306C 279.89,305.741 283.89,304.574 287.5,302.5 Z"/></g>
<g><path style="opacity:1" fill="#433b2e" d="M 334.5,302.5 C 336.812,304.636 339.312,306.636 342,308.5C 344.538,315.288 343.038,321.122 337.5,326C 334.935,326.609 332.601,326.109 330.5,324.5C 326.742,321.443 322.742,318.61 318.5,316C 314.684,313.067 314.517,309.901 318,306.5C 322.353,300.304 327.853,298.971 334.5,302.5 Z"/></g>
<g><path style="opacity:1" fill="#59431c" d="M 167.5,310.5 C 169.708,311.918 170.542,313.918 170,316.5C 168.085,317.916 166.585,317.582 165.5,315.5C 166.5,315.5 167.5,315.5 168.5,315.5C 168.371,313.784 168.038,312.117 167.5,310.5 Z"/></g>
<g><path style="opacity:1" fill="#f4c159" d="M 324.5,306.5 C 328.844,306.339 332.511,307.839 335.5,311C 337.706,313.209 338.04,315.709 336.5,318.5C 335.635,319.583 334.635,319.749 333.5,319C 329.433,316.639 325.767,313.806 322.5,310.5C 323.18,309.14 323.847,307.807 324.5,306.5 Z"/></g>
<g><path style="opacity:1" fill="#f8c970" d="M 384.5,297.5 C 382.144,305.875 378.478,313.542 373.5,320.5C 373.5,318.167 373.5,315.833 373.5,313.5C 374.5,313.5 375.5,313.5 376.5,313.5C 378.411,308.546 380.411,303.546 382.5,298.5C 382.957,297.702 383.624,297.369 384.5,297.5 Z"/></g>
<g><path style="opacity:1" fill="#f7d087" d="M 111.5,288.5 C 112.728,289.306 113.728,290.306 114.5,291.5C 116.172,297.177 118.005,302.844 120,308.5C 123.267,314.814 126.434,321.148 129.5,327.5C 121.108,315.709 115.108,302.709 111.5,288.5 Z"/></g>
<g><path style="opacity:1" fill="#5b441a" d="M 186.5,319.5 C 192.833,317.167 194.833,319.167 192.5,325.5C 193.5,320.5 191.5,318.5 186.5,319.5 Z"/></g>
<g><path style="opacity:1" fill="#e4ba62" d="M 334.5,302.5 C 337.55,301.923 339.55,303.09 340.5,306C 341.448,306.483 342.448,306.649 343.5,306.5C 346.894,316.223 344.227,323.557 335.5,328.5C 333.185,327.859 331.519,326.525 330.5,324.5C 332.601,326.109 334.935,326.609 337.5,326C 343.038,321.122 344.538,315.288 342,308.5C 339.312,306.636 336.812,304.636 334.5,302.5 Z"/></g>
<g><path style="opacity:1" fill="#f6c055" d="M 299.5,326.5 C 300.395,334.945 304.395,341.611 311.5,346.5C 305.108,345.85 301.775,348.683 301.5,355C 303.013,356.879 303.679,359.046 303.5,361.5C 301.263,360.551 298.929,359.884 296.5,359.5C 299.503,355.451 300.169,351.118 298.5,346.5C 297.736,343.982 296.736,341.649 295.5,339.5C 292.936,333.936 288.603,332.102 282.5,334C 281.058,334.377 280.058,335.21 279.5,336.5C 278.833,336.833 278.167,337.167 277.5,337.5C 277.227,335.549 277.893,334.049 279.5,333C 277.963,331.89 277.297,330.39 277.5,328.5C 280.219,328.397 282.885,328.731 285.5,329.5C 287.334,328.246 289.334,327.579 291.5,327.5C 291.167,325.5 290.833,323.5 290.5,321.5C 291.5,321.5 292.5,321.5 293.5,321.5C 293.722,325.387 294.722,329.054 296.5,332.5C 296.964,330.025 297.964,328.025 299.5,326.5 Z"/></g>
<g><path style="opacity:1" fill="#443a2d" d="M 322.5,341.5 C 319.896,345.266 316.229,346.933 311.5,346.5C 304.395,341.611 300.395,334.945 299.5,326.5C 305.066,317.993 311.566,317.327 319,324.5C 321.392,327.228 323.392,330.228 325,333.5C 325.977,336.817 325.144,339.484 322.5,341.5 Z"/></g>
<g><path style="opacity:1" fill="#f2bf59" d="M 317.5,340.5 C 315.801,340.66 314.134,340.494 312.5,340C 310.353,336.885 307.853,334.052 305,331.5C 304.336,326.504 306.502,324.67 311.5,326C 315.159,328.815 317.826,332.315 319.5,336.5C 319.248,338.073 318.582,339.406 317.5,340.5 Z"/></g>
<g><path style="opacity:1" fill="#493e2a" d="M 171.5,328.5 C 171.047,329.458 170.381,330.292 169.5,331C 172.361,330.97 174.695,331.803 176.5,333.5C 175.209,333.263 174.209,333.596 173.5,334.5C 171.287,335.605 169.12,335.605 167,334.5C 166.713,331.273 168.213,329.273 171.5,328.5 Z"/></g>
<g><path style="opacity:1" fill="#4d3a1d" d="M 211.5,331.5 C 212.167,332.5 212.833,333.5 213.5,334.5C 202.458,329.546 198.458,332.879 201.5,344.5C 197.246,339.748 197.579,335.248 202.5,331C 205.555,330.366 208.555,330.532 211.5,331.5 Z"/></g>
<g><path style="opacity:1" fill="#3a3837" d="M 322.5,341.5 C 320.585,341.784 318.919,341.451 317.5,340.5C 318.496,340.586 319.329,340.252 320,339.5C 320.791,336.248 320.291,333.248 318.5,330.5C 318.833,329.833 319.167,329.167 319.5,328.5C 323.428,332.136 324.428,336.47 322.5,341.5 Z"/></g>
<g><path style="opacity:1" fill="#403a31" d="M 186.5,319.5 C 191.5,318.5 193.5,320.5 192.5,325.5C 190.072,331.352 187.406,337.019 184.5,342.5C 183.18,343.942 181.514,344.608 179.5,344.5C 179.5,343.5 179.5,342.5 179.5,341.5C 179.539,340.417 179.873,339.417 180.5,338.5C 179.143,336.814 177.81,335.148 176.5,333.5C 174.695,331.803 172.361,330.97 169.5,331C 170.381,330.292 171.047,329.458 171.5,328.5C 173.167,327.167 174.833,325.833 176.5,324.5C 179.833,322.833 183.167,321.167 186.5,319.5 Z"/></g>
<g><path style="opacity:1" fill="#e6c06d" d="M 185.5,325.5 C 185.973,327.97 185.139,330.304 183,332.5C 181.978,331.646 181.145,330.646 180.5,329.5C 182.21,328.113 183.877,326.779 185.5,325.5 Z"/></g>
<g><path style="opacity:1" fill="#f6c157" d="M 211.5,331.5 C 208.555,330.532 205.555,330.366 202.5,331C 197.579,335.248 197.246,339.748 201.5,344.5C 202.752,346.001 203.752,347.668 204.5,349.5C 204.516,351.484 203.516,352.484 201.5,352.5C 199.583,352.246 198.249,351.246 197.5,349.5C 196.891,346.034 195.058,345.034 192,346.5C 191.023,349.817 191.856,352.484 194.5,354.5C 195.833,355.833 197.167,357.167 198.5,358.5C 191.254,357.27 188.42,352.936 190,345.5C 189,346.833 188,346.833 187,345.5C 186.51,346.793 186.343,348.127 186.5,349.5C 183.739,348.08 180.739,347.413 177.5,347.5C 177.099,344.252 176.432,341.085 175.5,338C 176.354,336.215 175.687,335.049 173.5,334.5C 174.209,333.596 175.209,333.263 176.5,333.5C 177.81,335.148 179.143,336.814 180.5,338.5C 179.873,339.417 179.539,340.417 179.5,341.5C 178.402,342.601 178.235,343.934 179,345.5C 182.138,347.013 183.972,346.013 184.5,342.5C 187.406,337.019 190.072,331.352 192.5,325.5C 194.833,319.167 192.833,317.167 186.5,319.5C 183.167,321.167 179.833,322.833 176.5,324.5C 177.893,322.716 178.393,320.716 178,318.5C 176.488,317.743 175.154,316.743 174,315.5C 172.69,318.127 171.023,320.46 169,322.5C 167.539,319.278 164.872,316.611 161,314.5C 158.264,315.727 155.431,316.727 152.5,317.5C 150.514,315.605 150.181,313.605 151.5,311.5C 151.33,312.822 151.663,313.989 152.5,315C 156.188,315.413 159.354,314.246 162,311.5C 162.949,313.093 164.115,314.426 165.5,315.5C 166.585,317.582 168.085,317.916 170,316.5C 170.542,313.918 169.708,311.918 167.5,310.5C 167.379,307.459 168.879,305.792 172,305.5C 174.307,307.439 176.14,309.772 177.5,312.5C 178.689,313.429 180.022,313.762 181.5,313.5C 181.66,311.801 181.494,310.134 181,308.5C 179.333,305.833 177.667,303.167 176,300.5C 174.102,298.316 171.936,297.983 169.5,299.5C 169.559,297.278 170.725,296.278 173,296.5C 174.447,296.945 175.78,297.612 177,298.5C 180.817,295.675 181.651,296.508 179.5,301C 179.626,306.005 180.96,306.505 183.5,302.5C 181.726,299.15 182.726,297.484 186.5,297.5C 186.41,301.556 185.077,305.056 182.5,308C 183.078,309.811 183.578,311.645 184,313.5C 184.965,311.74 186.132,311.406 187.5,312.5C 185.667,313.968 185.334,315.635 186.5,317.5C 188.356,316.724 189.689,315.391 190.5,313.5C 194.065,317.371 195.398,322.037 194.5,327.5C 195.93,327.579 197.264,327.246 198.5,326.5C 199.167,327.5 199.833,328.5 200.5,329.5C 203.811,328.647 207.144,328.814 210.5,330C 211.056,330.383 211.389,330.883 211.5,331.5 Z"/></g>
<g><path style="opacity:1" fill="#3f3a31" d="M 213.5,334.5 C 214.117,334.611 214.617,334.944 215,335.5C 215.667,337.5 215.667,339.5 215,341.5C 213.989,342.337 212.822,342.67 211.5,342.5C 211.631,337.631 209.297,335.631 204.5,336.5C 204.343,337.873 204.51,339.207 205,340.5C 206.802,341.789 207.969,343.456 208.5,345.5C 208.5,348.5 208.5,351.5 208.5,354.5C 206.11,354.855 203.777,355.522 201.5,356.5C 200.5,356.167 199.5,355.833 198.5,355.5C 198.709,354.914 199.043,354.414 199.5,354C 201.473,353.505 203.473,353.338 205.5,353.5C 205.768,351.901 205.434,350.568 204.5,349.5C 203.752,347.668 202.752,346.001 201.5,344.5C 198.458,332.879 202.458,329.546 213.5,334.5 Z"/></g>
<g><path style="opacity:1" fill="#f7cd74" d="M 373.5,321.5 C 369.806,328.904 365.139,335.571 359.5,341.5C 359.5,339.833 359.5,338.167 359.5,336.5C 360.5,336.5 361.5,336.5 362.5,336.5C 362.343,335.127 362.51,333.793 363,332.5C 367.33,330.179 369.33,326.512 369,321.5C 369.333,322.5 369.667,323.5 370,324.5C 370.422,322.574 371.589,321.574 373.5,321.5 Z"/></g>
<g><path style="opacity:1" fill="#493e28" d="M 295.5,339.5 C 294.211,337.752 292.711,337.419 291,338.5C 291.932,340.582 292.432,342.915 292.5,345.5C 291.5,344.167 290.5,342.833 289.5,341.5C 287.373,337.61 284.873,337.61 282,341.5C 282.822,345.511 283.989,349.511 285.5,353.5C 281.331,350.14 279.831,345.807 281,340.5C 283.196,337.875 286.03,336.875 289.5,337.5C 289.5,336.5 289.5,335.5 289.5,334.5C 286.017,334.691 282.684,335.357 279.5,336.5C 280.058,335.21 281.058,334.377 282.5,334C 288.603,332.102 292.936,333.936 295.5,339.5 Z"/></g>
<g><path style="opacity:1" fill="#e8b964" d="M 211.5,331.5 C 214.919,332.042 216.586,334.042 216.5,337.5C 223.531,336.408 230.198,337.408 236.5,340.5C 232.476,339.962 228.476,339.295 224.5,338.5C 221.324,336.727 219.657,337.727 219.5,341.5C 217.847,339.161 216.513,339.661 215.5,343C 213.934,343.765 212.601,343.598 211.5,342.5C 212.822,342.67 213.989,342.337 215,341.5C 215.667,339.5 215.667,337.5 215,335.5C 214.617,334.944 214.117,334.611 213.5,334.5C 212.833,333.5 212.167,332.5 211.5,331.5 Z"/></g>
<g><path style="opacity:1" fill="#e2b560" d="M 270.5,340.5 C 266.833,340.5 263.167,340.5 259.5,340.5C 260.694,339.223 262.36,338.556 264.5,338.5C 266.167,338.667 267.833,338.833 269.5,339C 270.056,339.383 270.389,339.883 270.5,340.5 Z"/></g>
<g><path style="opacity:1" fill="#3c3934" d="M 285.5,353.5 C 285.874,355.95 287.374,356.95 290,356.5C 292.034,356.646 293.701,355.98 295,354.5C 295.49,355.793 295.657,357.127 295.5,358.5C 291.527,358.596 288.194,359.263 285.5,360.5C 283.629,360.141 282.129,359.141 281,357.5C 279.533,354.242 278.367,350.908 277.5,347.5C 277.113,343.556 277.78,339.889 279.5,336.5C 282.684,335.357 286.017,334.691 289.5,334.5C 289.5,335.5 289.5,336.5 289.5,337.5C 286.03,336.875 283.196,337.875 281,340.5C 279.831,345.807 281.331,350.14 285.5,353.5 Z"/></g>
<g><path style="opacity:1" fill="#5e4821" d="M 224.5,338.5 C 223.5,338.5 222.5,338.5 221.5,338.5C 221.408,341.4 222.741,343.067 225.5,343.5C 223.142,343.747 221.142,343.081 219.5,341.5C 219.657,337.727 221.324,336.727 224.5,338.5 Z"/></g>
<g><path style="opacity:1" fill="#e9bb5e" d="M 211.5,342.5 C 210.761,342.369 210.094,342.536 209.5,343C 213.485,347.728 213.485,352.395 209.5,357C 208.552,357.483 207.552,357.649 206.5,357.5C 210.843,354.106 211.51,350.106 208.5,345.5C 207.969,343.456 206.802,341.789 205,340.5C 204.51,339.207 204.343,337.873 204.5,336.5C 209.297,335.631 211.631,337.631 211.5,342.5 Z"/></g>
<g><path style="opacity:1" fill="#d9ae5c" d="M 259.5,340.5 C 258.122,341.234 256.622,341.901 255,342.5C 254.913,347.488 255.08,352.488 255.5,357.5C 253.415,352.392 252.749,347.059 253.5,341.5C 255.409,340.652 257.409,340.318 259.5,340.5 Z"/></g>
<g><path style="opacity:1" fill="#54471d" d="M 295.5,339.5 C 296.736,341.649 297.736,343.982 298.5,346.5C 296.166,344.824 295.166,342.491 295.5,339.5 Z"/></g>
<g><path style="opacity:1" fill="#564725" d="M 279.5,336.5 C 277.78,339.889 277.113,343.556 277.5,347.5C 275.238,344.819 274.904,341.819 276.5,338.5C 277.167,338.5 277.5,338.167 277.5,337.5C 278.167,337.167 278.833,336.833 279.5,336.5 Z"/></g>
<g><path style="opacity:1" fill="#e3b767" d="M 289.5,341.5 C 287.661,340.248 285.828,340.248 284,341.5C 284.493,345.516 285.326,349.516 286.5,353.5C 286.167,353.5 285.833,353.5 285.5,353.5C 283.989,349.511 282.822,345.511 282,341.5C 284.873,337.61 287.373,337.61 289.5,341.5 Z"/></g>
<g><path style="opacity:1" fill="#5a4118" d="M 179.5,341.5 C 179.5,342.5 179.5,343.5 179.5,344.5C 181.514,344.608 183.18,343.942 184.5,342.5C 183.972,346.013 182.138,347.013 179,345.5C 178.235,343.934 178.402,342.601 179.5,341.5 Z"/></g>
<g><path style="opacity:1" fill="#473b29" d="M 259.5,340.5 C 263.167,340.5 266.833,340.5 270.5,340.5C 271.167,340.5 271.5,340.833 271.5,341.5C 271.67,342.822 271.337,343.989 270.5,345C 267.5,345.333 264.5,345.667 261.5,346C 260.594,347.699 260.261,349.533 260.5,351.5C 259.057,350.665 258.057,349.332 257.5,347.5C 256.513,350.768 256.18,354.102 256.5,357.5C 256.167,357.5 255.833,357.5 255.5,357.5C 255.08,352.488 254.913,347.488 255,342.5C 256.622,341.901 258.122,341.234 259.5,340.5 Z"/></g>
<g><path style="opacity:1" fill="#f3c05b" d="M 276.5,338.5 C 274.904,341.819 275.238,344.819 277.5,347.5C 278.367,350.908 279.533,354.242 281,357.5C 282.129,359.141 283.629,360.141 285.5,360.5C 286.274,361.147 287.274,361.48 288.5,361.5C 291.233,361.032 293.9,360.365 296.5,359.5C 295.653,360.966 294.32,361.8 292.5,362C 283.064,363.249 277.564,359.082 276,349.5C 274.467,349.944 272.967,350.277 271.5,350.5C 270.95,352.657 270.283,354.657 269.5,356.5C 269.67,355.178 269.337,354.011 268.5,353C 265.854,352.503 263.187,352.336 260.5,352.5C 260.5,352.167 260.5,351.833 260.5,351.5C 260.261,349.533 260.594,347.699 261.5,346C 264.5,345.667 267.5,345.333 270.5,345C 271.337,343.989 271.67,342.822 271.5,341.5C 272.158,342.398 272.824,343.398 273.5,344.5C 274.011,342.116 275.011,340.116 276.5,338.5 Z"/></g>
<g><path style="opacity:1" fill="#3c3734" d="M 295.5,339.5 C 295.166,342.491 296.166,344.824 298.5,346.5C 298.663,348.857 298.497,351.19 298,353.5C 297.51,352.207 297.343,350.873 297.5,349.5C 295.336,349.279 293.67,348.279 292.5,346.5C 292.5,346.167 292.5,345.833 292.5,345.5C 292.432,342.915 291.932,340.582 291,338.5C 292.711,337.419 294.211,337.752 295.5,339.5 Z"/></g>
<g><path style="opacity:1" fill="#493d29" d="M 208.5,345.5 C 211.51,350.106 210.843,354.106 206.5,357.5C 203.904,358.265 201.237,358.599 198.5,358.5C 197.167,357.167 195.833,355.833 194.5,354.5C 193.545,352.254 192.878,349.921 192.5,347.5C 194.514,347.392 196.18,348.058 197.5,349.5C 198.249,351.246 199.583,352.246 201.5,352.5C 203.516,352.484 204.516,351.484 204.5,349.5C 205.434,350.568 205.768,351.901 205.5,353.5C 203.473,353.338 201.473,353.505 199.5,354C 199.043,354.414 198.709,354.914 198.5,355.5C 199.5,355.833 200.5,356.167 201.5,356.5C 203.777,355.522 206.11,354.855 208.5,354.5C 208.5,351.5 208.5,348.5 208.5,345.5 Z"/></g>
<g><path style="opacity:1" fill="#f7c158" d="M 289.5,341.5 C 290.5,342.833 291.5,344.167 292.5,345.5C 292.5,345.833 292.5,346.167 292.5,346.5C 293.435,349.113 293.602,351.779 293,354.5C 290.448,356.02 288.282,355.687 286.5,353.5C 285.326,349.516 284.493,345.516 284,341.5C 285.828,340.248 287.661,340.248 289.5,341.5 Z"/></g>
<g><path style="opacity:1" fill="#56421c" d="M 197.5,349.5 C 196.18,348.058 194.514,347.392 192.5,347.5C 192.878,349.921 193.545,352.254 194.5,354.5C 191.856,352.484 191.023,349.817 192,346.5C 195.058,345.034 196.891,346.034 197.5,349.5 Z"/></g>
<g><path style="opacity:1" fill="#4a4029" d="M 292.5,346.5 C 293.67,348.279 295.336,349.279 297.5,349.5C 297.343,350.873 297.51,352.207 298,353.5C 298.497,351.19 298.663,348.857 298.5,346.5C 300.169,351.118 299.503,355.451 296.5,359.5C 293.9,360.365 291.233,361.032 288.5,361.5C 287.274,361.48 286.274,361.147 285.5,360.5C 288.194,359.263 291.527,358.596 295.5,358.5C 295.657,357.127 295.49,355.793 295,354.5C 293.701,355.98 292.034,356.646 290,356.5C 287.374,356.95 285.874,355.95 285.5,353.5C 285.833,353.5 286.167,353.5 286.5,353.5C 288.282,355.687 290.448,356.02 293,354.5C 293.602,351.779 293.435,349.113 292.5,346.5 Z"/></g>
<g><path style="opacity:1" fill="#433b2d" d="M 224.5,338.5 C 228.476,339.295 232.476,339.962 236.5,340.5C 238.432,341.976 238.765,343.643 237.5,345.5C 235.396,345.201 233.396,345.534 231.5,346.5C 229.692,352.063 228.359,357.73 227.5,363.5C 224.627,367.583 222.627,367.083 221.5,362C 223.356,355.935 224.69,349.768 225.5,343.5C 222.741,343.067 221.408,341.4 221.5,338.5C 222.5,338.5 223.5,338.5 224.5,338.5 Z"/></g>
<g><path style="opacity:1" fill="#f8c96f" d="M 359.5,341.5 C 351.389,351.282 342.056,359.615 331.5,366.5C 331.414,365.504 331.748,364.671 332.5,364C 333.766,363.691 334.933,363.191 336,362.5C 336.233,360.22 337.066,358.22 338.5,356.5C 341.567,359.104 342.567,358.438 341.5,354.5C 342.391,353.41 343.391,353.41 344.5,354.5C 345.386,353.675 345.719,352.675 345.5,351.5C 349.537,350.962 351.871,348.628 352.5,344.5C 353.552,344.649 354.552,344.483 355.5,344C 354.044,343.577 353.544,342.744 354,341.5C 355.776,342.536 357.609,342.536 359.5,341.5 Z"/></g>
<g><path style="opacity:1" fill="#e7ba5b" d="M 237.5,345.5 C 235.958,346.163 234.291,346.83 232.5,347.5C 231.594,352.508 230.594,357.508 229.5,362.5C 228.817,362.863 228.15,363.196 227.5,363.5C 228.359,357.73 229.692,352.063 231.5,346.5C 233.396,345.534 235.396,345.201 237.5,345.5 Z"/></g>
<g><path style="opacity:1" fill="#3a3835" d="M 260.5,351.5 C 260.5,351.833 260.5,352.167 260.5,352.5C 262.45,354.026 264.783,355.026 267.5,355.5C 265.314,356.221 263.147,356.887 261,357.5C 260.821,360.553 260.321,363.553 259.5,366.5C 258.675,364.64 257.675,362.974 256.5,361.5C 256.5,360.167 256.5,358.833 256.5,357.5C 256.18,354.102 256.513,350.768 257.5,347.5C 258.057,349.332 259.057,350.665 260.5,351.5 Z"/></g>
<g><path style="opacity:1" fill="#f8d18a" d="M 158.5,359.5 C 161.089,360.419 163.089,362.086 164.5,364.5C 161.911,363.581 159.911,361.914 158.5,359.5 Z"/></g>
<g><path style="opacity:1" fill="#e0b769" d="M 269.5,356.5 C 268.393,358.969 266.393,359.969 263.5,359.5C 264.055,363.012 263.388,366.012 261.5,368.5C 262.252,365.253 262.752,361.919 263,358.5C 265.154,357.77 267.321,357.103 269.5,356.5 Z"/></g>
<g><path style="opacity:1" fill="#4b3b20" d="M 260.5,352.5 C 263.187,352.336 265.854,352.503 268.5,353C 269.337,354.011 269.67,355.178 269.5,356.5C 267.321,357.103 265.154,357.77 263,358.5C 262.752,361.919 262.252,365.253 261.5,368.5C 260.167,368.5 258.833,368.5 257.5,368.5C 257.326,366.139 256.993,363.806 256.5,361.5C 257.675,362.974 258.675,364.64 259.5,366.5C 260.321,363.553 260.821,360.553 261,357.5C 263.147,356.887 265.314,356.221 267.5,355.5C 264.783,355.026 262.45,354.026 260.5,352.5 Z"/></g>
<g><path style="opacity:1" fill="#f9d07c" d="M 313.5,377.5 C 310.26,379.951 306.593,381.618 302.5,382.5C 302.082,381.778 301.416,381.278 300.5,381C 304.849,379.821 309.183,378.654 313.5,377.5 Z"/></g>
<g><path style="opacity:1" fill="#f5ca75" d="M 189.5,379.5 C 192.247,379.187 194.914,379.52 197.5,380.5C 199.003,382.422 201.003,383.588 203.5,384C 211.837,385.775 220.17,387.775 228.5,390C 242.845,390.833 257.178,390.666 271.5,389.5C 281.931,387.409 292.264,385.075 302.5,382.5C 280.128,391.671 256.795,394.838 232.5,392C 217.325,390.326 202.991,386.159 189.5,379.5 Z"/></g>
</svg>
