<?xml version="1.0" encoding="UTF-8"?>
<!DOCTYPE svg PUBLIC "-//W3C//DTD SVG 1.1//EN" "http://www.w3.org/Graphics/SVG/1.1/DTD/svg11.dtd">
<svg xmlns="http://www.w3.org/2000/svg" version="1.1" width="500px" height="500px" style="shape-rendering:geometricPrecision; text-rendering:geometricPrecision; image-rendering:optimizeQuality; fill-rule:evenodd; clip-rule:evenodd" xmlns:xlink="http://www.w3.org/1999/xlink">
<g><path style="opacity:0.999" fill="#3a3939" d="M 185.5,121.5 C 186.873,121.343 188.207,121.51 189.5,122C 188.833,122.333 188.167,122.667 187.5,123C 188.91,123.368 189.91,124.201 190.5,125.5C 193.257,126.029 195.757,127.029 198,128.5C 198.333,127.833 198.667,127.167 199,126.5C 200.477,129.297 202.31,131.797 204.5,134C 203.879,137.144 202.212,137.978 199.5,136.5C 199.167,137 198.833,137.5 198.5,138C 200.411,140.133 202.077,142.466 203.5,145C 204.6,145.432 205.267,144.932 205.5,143.5C 203.56,140.804 204.227,139.471 207.5,139.5C 207.5,140.5 207.5,141.5 207.5,142.5C 209.167,142.5 210.833,142.5 212.5,142.5C 212.671,145.797 212.005,146.131 210.5,143.5C 210.167,144 209.833,144.5 209.5,145C 210.765,146.656 212.099,148.323 213.5,150C 214,150.167 214.5,150.333 215,150.5C 218.29,146.63 222.456,145.13 227.5,146C 227.167,146.333 226.833,146.667 226.5,147C 227.756,147.417 228.423,148.25 228.5,149.5C 228.571,152.652 229.905,154.986 232.5,156.5C 232.611,157.117 232.944,157.617 233.5,158C 237.7,158.825 241.533,157.991 245,155.5C 244.737,156.951 244.904,158.284 245.5,159.5C 249.173,157.394 253.173,156.228 257.5,156C 258.38,154.644 258.714,153.144 258.5,151.5C 258.5,151.167 258.5,150.833 258.5,150.5C 260.989,150.298 263.323,150.798 265.5,152C 265.88,154.326 266.88,156.159 268.5,157.5C 268.833,157.5 269.167,157.5 269.5,157.5C 271.662,158.417 273.995,158.417 276.5,157.5C 276.44,161.485 278.44,163.152 282.5,162.5C 286.002,163.917 289.669,164.584 293.5,164.5C 293.5,162.833 293.5,161.167 293.5,159.5C 290.421,159.196 287.587,158.196 285,156.5C 284.878,154.718 285.378,153.052 286.5,151.5C 287.497,151.53 288.164,151.03 288.5,150C 289.45,146.609 290.783,143.442 292.5,140.5C 293.117,140.389 293.617,140.056 294,139.5C 294.495,137.527 294.662,135.527 294.5,133.5C 295.5,133.5 296.5,133.5 297.5,133.5C 297.937,136.807 297.27,139.807 295.5,142.5C 295.833,142.833 296.167,143.167 296.5,143.5C 299.722,141.86 301.056,139.193 300.5,135.5C 301.833,135.5 303.167,135.5 304.5,135.5C 304.849,139.064 304.183,142.398 302.5,145.5C 301.833,144.833 301.167,144.167 300.5,143.5C 299.794,145.766 299.961,148.099 301,150.5C 301.414,150.957 301.914,151.291 302.5,151.5C 303.427,149.887 304.261,148.221 305,146.5C 306.011,145.663 307.178,145.33 308.5,145.5C 308.5,144.5 308.5,143.5 308.5,142.5C 311.657,142.563 314.491,143.563 317,145.5C 317.542,148.082 316.708,150.082 314.5,151.5C 314.66,149.801 314.494,148.134 314,146.5C 312.951,145.483 311.784,145.316 310.5,146C 304.747,152.899 300.081,160.399 296.5,168.5C 296.916,170.752 298.249,172.252 300.5,173C 299.398,175.391 300.064,175.891 302.5,174.5C 303.85,175.95 305.516,176.617 307.5,176.5C 307.766,180.079 309.099,180.413 311.5,177.5C 311.983,180.66 313.316,183.326 315.5,185.5C 314.198,186.357 312.865,186.857 311.5,187C 308.89,185.616 307.39,183.449 307,180.5C 305.028,181.305 303.528,182.639 302.5,184.5C 303.325,185.386 304.325,185.719 305.5,185.5C 305.261,187.467 305.594,189.301 306.5,191C 305.351,192.744 304.017,192.911 302.5,191.5C 301.534,193.396 301.201,195.396 301.5,197.5C 300.041,197.433 298.708,197.766 297.5,198.5C 296.048,197.698 294.382,197.198 292.5,197C 291.359,196.259 291.359,195.425 292.5,194.5C 288.895,193.461 285.228,192.795 281.5,192.5C 281.167,192.5 280.833,192.5 280.5,192.5C 280.389,191.883 280.056,191.383 279.5,191C 257.826,190.167 236.159,190.334 214.5,191.5C 211.621,192.08 209.954,193.747 209.5,196.5C 205.759,195.599 203.759,196.932 203.5,200.5C 202.178,200.67 201.011,200.337 200,199.5C 199.647,200.672 199.813,201.838 200.5,203C 198.807,205.22 197.807,207.72 197.5,210.5C 197.007,212.806 196.674,215.139 196.5,217.5C 195.835,220.314 195.502,223.314 195.5,226.5C 195.517,229.913 196.184,232.913 197.5,235.5C 197.5,235.833 197.5,236.167 197.5,236.5C 196.962,238.117 196.629,239.784 196.5,241.5C 196.325,243.621 196.659,245.621 197.5,247.5C 201.829,248.061 206.162,248.894 210.5,250C 203.115,250.199 195.782,250.865 188.5,252C 186.808,253.401 186.141,255.234 186.5,257.5C 185.167,262.5 185.167,267.5 186.5,272.5C 187.055,274.729 188.389,276.395 190.5,277.5C 191.689,278.429 193.022,278.762 194.5,278.5C 194.336,284.167 194.003,284.5 193.5,279.5C 190.455,279.492 187.455,279.159 184.5,278.5C 186.161,282.186 189.161,284.186 193.5,284.5C 193.351,285.552 193.517,286.552 194,287.5C 197.755,289.185 198.922,291.852 197.5,295.5C 198.018,301.552 199.351,301.886 201.5,296.5C 203.592,298.605 205.925,300.272 208.5,301.5C 211.929,303.448 215.595,304.948 219.5,306C 239.5,306.667 259.5,306.667 279.5,306C 282.951,305.105 286.284,303.938 289.5,302.5C 288.28,304.282 287.614,306.282 287.5,308.5C 283.753,305.846 280.086,306.013 276.5,309C 264.5,309.333 252.5,309.667 240.5,310C 239.584,310.374 238.75,310.874 238,311.5C 234.822,310.721 231.156,310.388 227,310.5C 222.309,312.652 217.476,312.985 212.5,311.5C 211.571,310.311 211.238,308.978 211.5,307.5C 209.833,307.5 208.167,307.5 206.5,307.5C 206.357,309.262 206.691,310.929 207.5,312.5C 212.581,315.101 217.914,316.768 223.5,317.5C 222.073,320.493 220.74,323.66 219.5,327C 219.818,329.375 221.151,330.542 223.5,330.5C 223.357,332.262 223.691,333.929 224.5,335.5C 223.675,336.386 222.675,336.719 221.5,336.5C 218.502,335.658 215.502,335.158 212.5,335C 210.689,337.597 209.355,340.431 208.5,343.5C 207.069,343.881 206.236,344.881 206,346.5C 205.535,345.069 204.701,343.903 203.5,343C 207.158,337.399 207.491,331.566 204.5,325.5C 202.929,324.691 201.262,324.357 199.5,324.5C 195.608,322.647 191.275,321.647 186.5,321.5C 187.055,317.988 186.388,314.988 184.5,312.5C 182.629,309.939 180.629,307.439 178.5,305C 176.365,304.365 174.365,304.699 172.5,306C 167.667,310.167 162.833,314.333 158,318.5C 157.481,322.132 158.647,325.132 161.5,327.5C 161.703,329.39 161.037,330.89 159.5,332C 160.448,332.483 161.448,332.649 162.5,332.5C 162.5,333.833 162.5,335.167 162.5,336.5C 164.167,336.5 165.833,336.5 167.5,336.5C 167.766,332.921 169.099,332.587 171.5,335.5C 172.803,334.282 173.803,334.615 174.5,336.5C 178.089,335 179.089,336 177.5,339.5C 177.643,342.406 178.643,344.739 180.5,346.5C 180.5,347.5 180.5,348.5 180.5,349.5C 179.5,349.5 178.5,349.5 177.5,349.5C 177.5,350.5 177.5,351.5 177.5,352.5C 184.334,352.089 191.001,352.756 197.5,354.5C 197.21,351.215 197.877,348.215 199.5,345.5C 201.144,345.286 202.644,345.62 204,346.5C 204.497,348.81 204.663,351.143 204.5,353.5C 203.667,355.752 203.667,357.919 204.5,360C 207.848,361.153 209.848,359.986 210.5,356.5C 211.859,355.993 212.859,354.993 213.5,353.5C 214.086,353.709 214.586,354.043 215,354.5C 215.282,358.488 216.115,362.321 217.5,366C 218.5,366.167 219.5,366.333 220.5,366.5C 222.03,366.36 223.03,365.693 223.5,364.5C 222.833,360.5 222.167,356.5 221.5,352.5C 223.39,352.703 224.89,352.037 226,350.5C 227.289,347.649 227.789,344.649 227.5,341.5C 228.483,345.298 228.817,349.298 228.5,353.5C 229.675,353.719 230.675,353.386 231.5,352.5C 231.766,349.655 232.766,347.322 234.5,345.5C 233.209,352.18 233.209,358.846 234.5,365.5C 234.624,367.582 235.624,369.082 237.5,370C 242.861,370.609 248.195,370.442 253.5,369.5C 253.777,366.552 253.444,363.719 252.5,361C 249.964,360.661 247.464,360.161 245,359.5C 243.174,360.01 243.007,360.844 244.5,362C 243.207,362.49 241.873,362.657 240.5,362.5C 240.334,358.154 240.501,353.821 241,349.5C 241.893,348.919 242.893,348.585 244,348.5C 246.271,349.271 248.438,350.271 250.5,351.5C 251.554,351.32 252.554,350.987 253.5,350.5C 254.484,347.572 254.817,344.572 254.5,341.5C 252.25,341.819 250.25,341.319 248.5,340C 253.8,338.499 256.8,340.333 257.5,345.5C 257.335,348.518 257.502,351.518 258,354.5C 258.037,356.974 258.87,358.974 260.5,360.5C 260.5,360.833 260.5,361.167 260.5,361.5C 260.244,363.792 260.577,365.959 261.5,368C 266.167,368.667 270.833,368.667 275.5,368C 277.32,367.8 278.653,366.966 279.5,365.5C 280.728,363.99 280.728,362.49 279.5,361C 276.854,360.503 274.187,360.336 271.5,360.5C 269.348,359.923 269.015,358.756 270.5,357C 272.473,356.505 274.473,356.338 276.5,356.5C 276.5,354.167 276.5,351.833 276.5,349.5C 273.513,349.002 270.513,348.502 267.5,348C 269.502,346.981 271.502,346.148 273.5,345.5C 275.662,345.103 276.995,343.769 277.5,341.5C 277.138,343.873 277.805,346.207 279.5,348.5C 280.689,349.429 282.022,349.762 283.5,349.5C 285.497,352.16 286.997,355.16 288,358.5C 288.804,359.804 289.971,360.471 291.5,360.5C 295.614,358.943 299.614,357.11 303.5,355C 304.252,354.329 304.586,353.496 304.5,352.5C 304.447,349.939 305.447,347.939 307.5,346.5C 309.143,348.154 310.976,349.487 313,350.5C 314.376,350.316 315.209,349.649 315.5,348.5C 318.095,346.184 320.761,343.851 323.5,341.5C 325.265,337.986 324.265,336.486 320.5,337C 318.679,338.743 316.679,340.243 314.5,341.5C 309.632,336.797 305.299,331.631 301.5,326C 300.072,325.421 298.738,325.588 297.5,326.5C 297.5,325.5 297.5,324.5 297.5,323.5C 299.144,323.286 300.644,323.62 302,324.5C 303.11,322.603 303.276,320.77 302.5,319C 305.353,317.47 306.02,315.303 304.5,312.5C 305.667,310.167 306.833,307.833 308,305.5C 309.481,306.471 310.315,307.804 310.5,309.5C 310.5,312.833 310.5,316.167 310.5,319.5C 311.5,319.5 312.5,319.5 313.5,319.5C 314.486,322.76 316.819,324.427 320.5,324.5C 324.051,326.111 327.051,328.444 329.5,331.5C 326.986,331.754 324.652,332.587 322.5,334C 323.416,334.374 324.25,334.874 325,335.5C 327.596,340.567 330.763,345.234 334.5,349.5C 334.999,352.217 336.165,354.551 338,356.5C 339.309,354.109 340.309,354.109 341,356.5C 343,354.833 345,353.167 347,351.5C 347.383,352.056 347.883,352.389 348.5,352.5C 326.124,374.686 299.124,387.853 267.5,392C 211.929,396.714 167.096,377.214 133,333.5C 103.589,289.71 98.2557,243.043 117,193.5C 131.515,161.487 154.348,137.487 185.5,121.5 Z"/></g>
<g><path style="opacity:1" fill="#f2bf59" d="M 267.5,128.5 C 268.504,129.683 269.338,131.016 270,132.5C 271.074,139.682 272.24,146.849 273.5,154C 273.576,156.756 272.243,157.923 269.5,157.5C 269.167,157.5 268.833,157.5 268.5,157.5C 267.631,155.283 267.298,152.95 267.5,150.5C 264.344,149.449 261.344,149.449 258.5,150.5C 258.5,150.833 258.5,151.167 258.5,151.5C 257.672,155.255 255.505,156.255 252,154.5C 251.333,153.167 251.333,151.833 252,150.5C 255.411,143.421 258.911,136.421 262.5,129.5C 264.045,128.548 265.712,128.215 267.5,128.5 Z"/></g>
<g><path style="opacity:1" fill="#433c2d" d="M 267.5,128.5 C 265.712,128.215 264.045,128.548 262.5,129.5C 258.911,136.421 255.411,143.421 252,150.5C 251.333,151.833 251.333,153.167 252,154.5C 255.505,156.255 257.672,155.255 258.5,151.5C 258.714,153.144 258.38,154.644 257.5,156C 253.173,156.228 249.173,157.394 245.5,159.5C 244.904,158.284 244.737,156.951 245,155.5C 241.533,157.991 237.7,158.825 233.5,158C 232.944,157.617 232.611,157.117 232.5,156.5C 242.516,158.297 247.35,154.297 247,144.5C 243.442,140.722 239.109,138.389 234,137.5C 233.362,134.07 234.862,132.737 238.5,133.5C 240.011,135.441 242.011,135.941 244.5,135C 245.337,133.989 245.67,132.822 245.5,131.5C 246.309,133.292 246.809,135.292 247,137.5C 247.667,138.833 248.333,138.833 249,137.5C 249.167,138 249.333,138.5 249.5,139C 248.483,141.787 248.316,144.62 249,147.5C 249.414,147.957 249.914,148.291 250.5,148.5C 252.341,146.488 253.341,144.155 253.5,141.5C 252.448,141.649 251.448,141.483 250.5,141C 252.134,140.506 253.801,140.34 255.5,140.5C 255.64,138.876 254.973,137.71 253.5,137C 255.046,135.56 255.879,133.727 256,131.5C 256.249,132.624 256.749,133.624 257.5,134.5C 259.334,132.023 260.667,129.357 261.5,126.5C 264.01,126.054 266.01,126.72 267.5,128.5 Z"/></g>
<g><path style="opacity:1" fill="#443a2d" d="M 267.5,128.5 C 269.624,129.031 271.124,130.365 272,132.5C 271.459,137.662 273.292,141.662 277.5,144.5C 276.675,145.386 275.675,145.719 274.5,145.5C 274.606,148.108 275.772,150.108 278,151.5C 279.257,148.532 280.424,145.532 281.5,142.5C 281.081,141.328 280.415,140.328 279.5,139.5C 279.846,138.304 280.346,138.304 281,139.5C 282.293,133.934 285.793,132.1 291.5,134C 292.423,136.041 292.756,138.208 292.5,140.5C 290.783,143.442 289.45,146.609 288.5,150C 288.164,151.03 287.497,151.53 286.5,151.5C 288.161,146.851 289.828,142.185 291.5,137.5C 291.253,134.918 289.92,134.085 287.5,135C 283.968,141.564 280.801,148.397 278,155.5C 277.333,156.833 277.333,158.167 278,159.5C 279.652,160.399 281.152,161.399 282.5,162.5C 278.44,163.152 276.44,161.485 276.5,157.5C 273.995,158.417 271.662,158.417 269.5,157.5C 272.243,157.923 273.576,156.756 273.5,154C 272.24,146.849 271.074,139.682 270,132.5C 269.338,131.016 268.504,129.683 267.5,128.5 Z"/></g>
<g><path style="opacity:1" fill="#443c2d" d="M 227.5,139.5 C 230.737,142.954 234.737,145.12 239.5,146C 242.191,148.812 241.524,150.645 237.5,151.5C 235.056,149.946 232.389,148.946 229.5,148.5C 230.398,147.842 231.398,147.176 232.5,146.5C 229.225,145.38 227.558,143.047 227.5,139.5 Z"/></g>
<g><path style="opacity:1" fill="#684e24" d="M 258.5,150.5 C 261.344,149.449 264.344,149.449 267.5,150.5C 267.298,152.95 267.631,155.283 268.5,157.5C 266.88,156.159 265.88,154.326 265.5,152C 263.323,150.798 260.989,150.298 258.5,150.5 Z"/></g>
<g><path style="opacity:1" fill="#f3bf5a" d="M 238.5,133.5 C 234.862,132.737 233.362,134.07 234,137.5C 239.109,138.389 243.442,140.722 247,144.5C 247.35,154.297 242.516,158.297 232.5,156.5C 229.905,154.986 228.571,152.652 228.5,149.5C 229.167,149.5 229.5,149.167 229.5,148.5C 232.389,148.946 235.056,149.946 237.5,151.5C 241.524,150.645 242.191,148.812 239.5,146C 234.737,145.12 230.737,142.954 227.5,139.5C 227.337,137.143 227.503,134.81 228,132.5C 228.708,131.619 229.542,130.953 230.5,130.5C 234.469,129.644 238.469,129.811 242.5,131C 243.337,132.011 243.67,133.178 243.5,134.5C 241.784,134.371 240.117,134.038 238.5,133.5 Z"/></g>
<g><path style="opacity:1" fill="#f1bf59" d="M 286.5,151.5 C 285.378,153.052 284.878,154.718 285,156.5C 287.587,158.196 290.421,159.196 293.5,159.5C 293.5,161.167 293.5,162.833 293.5,164.5C 289.669,164.584 286.002,163.917 282.5,162.5C 281.152,161.399 279.652,160.399 278,159.5C 277.333,158.167 277.333,156.833 278,155.5C 280.801,148.397 283.968,141.564 287.5,135C 289.92,134.085 291.253,134.918 291.5,137.5C 289.828,142.185 288.161,146.851 286.5,151.5 Z"/></g>
<g><path style="opacity:1" fill="#f2bf5b" d="M 214.5,158.5 C 214.915,160.948 213.915,162.281 211.5,162.5C 209.272,161.781 207.439,160.448 206,158.5C 203.912,159.308 201.912,160.308 200,161.5C 199.26,162.749 199.427,163.749 200.5,164.5C 200.923,167.288 199.923,169.288 197.5,170.5C 196.522,170.023 195.689,169.357 195,168.5C 185.754,135.015 192.254,131.681 214.5,158.5 Z"/></g>
<g><path style="opacity:1" fill="#61481f" d="M 196.5,148.5 C 198.63,150.127 200.63,151.96 202.5,154C 201.335,155.084 200.002,155.917 198.5,156.5C 197.619,153.87 196.952,151.203 196.5,148.5 Z"/></g>
<g><path style="opacity:0.999" fill="#3a3939" d="M 348.5,352.5 C 347.883,352.389 347.383,352.056 347,351.5C 345,353.167 343,354.833 341,356.5C 340.309,354.109 339.309,354.109 338,356.5C 336.165,354.551 334.999,352.217 334.5,349.5C 330.763,345.234 327.596,340.567 325,335.5C 324.25,334.874 323.416,334.374 322.5,334C 324.652,332.587 326.986,331.754 329.5,331.5C 331.167,331.5 332.833,331.5 334.5,331.5C 337.78,328.957 340.613,325.957 343,322.5C 345.129,315.116 342.962,313.116 336.5,316.5C 334.889,315.68 334.222,314.346 334.5,312.5C 337.673,312.599 340.673,311.932 343.5,310.5C 343.167,309.5 342.5,308.833 341.5,308.5C 339.214,309.42 336.881,309.42 334.5,308.5C 334.676,304.808 333.009,302.808 329.5,302.5C 329.5,301.5 329.5,300.5 329.5,299.5C 327.409,299.318 325.409,299.652 323.5,300.5C 322.494,300.062 322.494,299.396 323.5,298.5C 322.998,297.479 322.332,297.312 321.5,298C 319.197,299.885 318.03,302.385 318,305.5C 317.667,305.167 317.333,304.833 317,304.5C 316.667,305.5 316.333,306.5 316,307.5C 315.667,307.167 315.333,306.833 315,306.5C 314.51,307.793 314.343,309.127 314.5,310.5C 313.041,310.567 311.708,310.234 310.5,309.5C 310.315,307.804 309.481,306.471 308,305.5C 306.833,307.833 305.667,310.167 304.5,312.5C 306.02,315.303 305.353,317.47 302.5,319C 303.276,320.77 303.11,322.603 302,324.5C 300.644,323.62 299.144,323.286 297.5,323.5C 297.5,324.5 297.5,325.5 297.5,326.5C 296.588,327.738 296.421,329.072 297,330.5C 300.248,333.357 302.748,336.69 304.5,340.5C 306.079,343.1 305.745,345.433 303.5,347.5C 300.39,348.61 297.39,349.944 294.5,351.5C 293.914,351.291 293.414,350.957 293,350.5C 292.734,346.019 291.901,341.686 290.5,337.5C 291.675,337.719 292.675,337.386 293.5,336.5C 292.833,336.167 292.167,335.833 291.5,335.5C 288.104,338.425 285.604,337.759 284,333.5C 283.51,332.207 283.343,330.873 283.5,329.5C 279.5,329.5 275.5,329.5 271.5,329.5C 271.813,332.247 271.48,334.914 270.5,337.5C 269.377,335.711 268.044,335.378 266.5,336.5C 266.709,337.086 267.043,337.586 267.5,338C 265.527,338.495 263.527,338.662 261.5,338.5C 261.719,337.325 261.386,336.325 260.5,335.5C 259.335,336.491 258.168,337.491 257,338.5C 251.632,337.714 246.298,337.38 241,337.5C 240.5,337.833 240,338.167 239.5,338.5C 240.243,339.182 240.909,339.849 241.5,340.5C 239.338,341.128 237.672,342.461 236.5,344.5C 235.833,344.833 235.167,345.167 234.5,345.5C 232.766,347.322 231.766,349.655 231.5,352.5C 230.675,353.386 229.675,353.719 228.5,353.5C 228.817,349.298 228.483,345.298 227.5,341.5C 225.475,339.804 223.475,338.137 221.5,336.5C 222.675,336.719 223.675,336.386 224.5,335.5C 223.691,333.929 223.357,332.262 223.5,330.5C 221.151,330.542 219.818,329.375 219.5,327C 220.74,323.66 222.073,320.493 223.5,317.5C 217.914,316.768 212.581,315.101 207.5,312.5C 206.691,310.929 206.357,309.262 206.5,307.5C 208.167,307.5 209.833,307.5 211.5,307.5C 211.238,308.978 211.571,310.311 212.5,311.5C 217.476,312.985 222.309,312.652 227,310.5C 231.156,310.388 234.822,310.721 238,311.5C 238.75,310.874 239.584,310.374 240.5,310C 252.5,309.667 264.5,309.333 276.5,309C 280.086,306.013 283.753,305.846 287.5,308.5C 287.614,306.282 288.28,304.282 289.5,302.5C 292.139,300.527 294.473,298.194 296.5,295.5C 300.712,289.878 303.378,283.545 304.5,276.5C 306.216,276.371 307.883,276.038 309.5,275.5C 311.371,275.141 312.871,274.141 314,272.5C 314.816,267.316 314.65,262.316 313.5,257.5C 312.5,256.833 311.5,256.167 310.5,255.5C 308.819,253.992 306.819,252.992 304.5,252.5C 295.5,251.833 286.5,251.167 277.5,250.5C 278.5,249.833 279.5,249.167 280.5,248.5C 287.267,247.868 293.933,247.201 300.5,246.5C 303.167,244.833 303.167,243.167 300.5,241.5C 299.241,240.021 298.241,238.354 297.5,236.5C 299.792,236.756 301.959,236.423 304,235.5C 304.667,227.833 304.667,220.167 304,212.5C 301.825,207.718 299.659,203.051 297.5,198.5C 298.708,197.766 300.041,197.433 301.5,197.5C 301.201,195.396 301.534,193.396 302.5,191.5C 304.017,192.911 305.351,192.744 306.5,191C 305.594,189.301 305.261,187.467 305.5,185.5C 304.325,185.719 303.325,185.386 302.5,184.5C 303.528,182.639 305.028,181.305 307,180.5C 307.39,183.449 308.89,185.616 311.5,187C 312.865,186.857 314.198,186.357 315.5,185.5C 317.246,187.252 319.246,188.585 321.5,189.5C 321.5,190.5 321.5,191.5 321.5,192.5C 323.833,192.5 326.167,192.5 328.5,192.5C 328.298,190.011 328.798,187.677 330,185.5C 331.011,186.337 332.178,186.67 333.5,186.5C 333.5,184.833 333.5,183.167 333.5,181.5C 334.165,179.631 334.831,177.631 335.5,175.5C 336.622,176.63 337.956,177.297 339.5,177.5C 343.071,177.592 344.238,175.926 343,172.5C 339.912,169.919 337.412,166.919 335.5,163.5C 335.03,162.307 334.03,161.64 332.5,161.5C 328.447,162.313 324.781,163.979 321.5,166.5C 322.127,167.417 322.461,168.417 322.5,169.5C 319.568,169.284 316.902,169.951 314.5,171.5C 313.833,171.167 313.167,170.833 312.5,170.5C 314.335,166.779 313.335,164.446 309.5,163.5C 309.5,162.167 309.5,160.833 309.5,159.5C 311.451,159.227 312.951,159.893 314,161.5C 315.694,159.76 316.861,157.76 317.5,155.5C 316.5,155.5 315.5,155.5 314.5,155.5C 314.5,154.167 314.5,152.833 314.5,151.5C 316.708,150.082 317.542,148.082 317,145.5C 314.491,143.563 311.657,142.563 308.5,142.5C 308.5,143.5 308.5,144.5 308.5,145.5C 307.178,145.33 306.011,145.663 305,146.5C 304.261,148.221 303.427,149.887 302.5,151.5C 301.914,151.291 301.414,150.957 301,150.5C 299.961,148.099 299.794,145.766 300.5,143.5C 301.167,144.167 301.833,144.833 302.5,145.5C 304.183,142.398 304.849,139.064 304.5,135.5C 303.167,135.5 301.833,135.5 300.5,135.5C 301.056,139.193 299.722,141.86 296.5,143.5C 296.167,143.167 295.833,142.833 295.5,142.5C 297.27,139.807 297.937,136.807 297.5,133.5C 296.5,133.5 295.5,133.5 294.5,133.5C 294.662,135.527 294.495,137.527 294,139.5C 293.617,140.056 293.117,140.389 292.5,140.5C 292.756,138.208 292.423,136.041 291.5,134C 285.793,132.1 282.293,133.934 281,139.5C 280.346,138.304 279.846,138.304 279.5,139.5C 280.415,140.328 281.081,141.328 281.5,142.5C 280.424,145.532 279.257,148.532 278,151.5C 275.772,150.108 274.606,148.108 274.5,145.5C 275.675,145.719 276.675,145.386 277.5,144.5C 273.292,141.662 271.459,137.662 272,132.5C 271.124,130.365 269.624,129.031 267.5,128.5C 266.01,126.72 264.01,126.054 261.5,126.5C 260.667,129.357 259.334,132.023 257.5,134.5C 256.749,133.624 256.249,132.624 256,131.5C 255.879,133.727 255.046,135.56 253.5,137C 254.973,137.71 255.64,138.876 255.5,140.5C 253.801,140.34 252.134,140.506 250.5,141C 251.448,141.483 252.448,141.649 253.5,141.5C 253.341,144.155 252.341,146.488 250.5,148.5C 249.914,148.291 249.414,147.957 249,147.5C 248.316,144.62 248.483,141.787 249.5,139C 249.333,138.5 249.167,138 249,137.5C 248.333,138.833 247.667,138.833 247,137.5C 246.809,135.292 246.309,133.292 245.5,131.5C 242.89,129.363 239.89,128.03 236.5,127.5C 233.898,127.467 231.898,128.467 230.5,130.5C 229.542,130.953 228.708,131.619 228,132.5C 227.503,134.81 227.337,137.143 227.5,139.5C 227.558,143.047 229.225,145.38 232.5,146.5C 231.398,147.176 230.398,147.842 229.5,148.5C 229.5,149.167 229.167,149.5 228.5,149.5C 228.423,148.25 227.756,147.417 226.5,147C 226.833,146.667 227.167,146.333 227.5,146C 222.456,145.13 218.29,146.63 215,150.5C 214.5,150.333 214,150.167 213.5,150C 212.099,148.323 210.765,146.656 209.5,145C 209.833,144.5 210.167,144 210.5,143.5C 212.005,146.131 212.671,145.797 212.5,142.5C 210.833,142.5 209.167,142.5 207.5,142.5C 207.5,141.5 207.5,140.5 207.5,139.5C 204.227,139.471 203.56,140.804 205.5,143.5C 205.267,144.932 204.6,145.432 203.5,145C 202.077,142.466 200.411,140.133 198.5,138C 198.833,137.5 199.167,137 199.5,136.5C 202.212,137.978 203.879,137.144 204.5,134C 202.31,131.797 200.477,129.297 199,126.5C 198.667,127.167 198.333,127.833 198,128.5C 195.757,127.029 193.257,126.029 190.5,125.5C 189.91,124.201 188.91,123.368 187.5,123C 188.167,122.667 188.833,122.333 189.5,122C 188.207,121.51 186.873,121.343 185.5,121.5C 211.53,108.276 239.197,103.443 268.5,107C 321.683,115.867 359.516,144.701 382,193.5C 402.143,247.63 394.477,297.296 359,342.5C 355.631,346.037 352.131,349.371 348.5,352.5 Z"/></g>
<g><path style="opacity:1" fill="#54421e" d="M 264.5,136.5 C 265.473,138.948 265.806,141.615 265.5,144.5C 264.167,144.5 262.833,144.5 261.5,144.5C 261.94,141.62 262.94,138.954 264.5,136.5 Z"/></g>
<g><path style="opacity:1" fill="#dcb461" d="M 245.5,131.5 C 245.67,132.822 245.337,133.989 244.5,135C 242.011,135.941 240.011,135.441 238.5,133.5C 240.117,134.038 241.784,134.371 243.5,134.5C 243.67,133.178 243.337,132.011 242.5,131C 238.469,129.811 234.469,129.644 230.5,130.5C 231.898,128.467 233.898,127.467 236.5,127.5C 239.89,128.03 242.89,129.363 245.5,131.5 Z"/></g>
<g><path style="opacity:1" fill="#4d4028" d="M 214.5,158.5 C 216.257,161.952 215.09,163.952 211,164.5C 209.145,163.756 207.479,162.756 206,161.5C 203.552,161.699 201.719,162.699 200.5,164.5C 199.427,163.749 199.26,162.749 200,161.5C 201.912,160.308 203.912,159.308 206,158.5C 207.439,160.448 209.272,161.781 211.5,162.5C 213.915,162.281 214.915,160.948 214.5,158.5 Z"/></g>
<g><path style="opacity:1" fill="#4c3f2a" d="M 335.5,163.5 C 333.932,162.527 332.265,162.36 330.5,163C 327.959,165.379 325.293,167.546 322.5,169.5C 322.461,168.417 322.127,167.417 321.5,166.5C 324.781,163.979 328.447,162.313 332.5,161.5C 334.03,161.64 335.03,162.307 335.5,163.5 Z"/></g>
<g><path style="opacity:1" fill="#f1be5a" d="M 314.5,151.5 C 310.567,155.849 307.233,160.682 304.5,166C 306.29,168.164 308.456,169.998 311,171.5C 311.49,172.793 311.657,174.127 311.5,175.5C 309.801,175.66 308.134,175.494 306.5,175C 303.309,172.574 299.975,170.407 296.5,168.5C 300.081,160.399 304.747,152.899 310.5,146C 311.784,145.316 312.951,145.483 314,146.5C 314.494,148.134 314.66,149.801 314.5,151.5 Z"/></g>
<g><path style="opacity:1" fill="#4b3b2a" d="M 339.5,177.5 C 337.956,177.297 336.622,176.63 335.5,175.5C 334.831,177.631 334.165,179.631 333.5,181.5C 333.657,180.127 333.49,178.793 333,177.5C 331.315,175.983 329.815,174.316 328.5,172.5C 329.916,170.861 331.583,170.027 333.5,170C 335.334,172.663 337.334,175.163 339.5,177.5 Z"/></g>
<g><path style="opacity:1" fill="#f0bf5b" d="M 165.5,160.5 C 166.873,160.343 168.207,160.51 169.5,161C 173.868,165.033 177.868,169.366 181.5,174C 182.5,174.667 183.5,174.667 184.5,174C 186.102,171.889 188.102,170.389 190.5,169.5C 193.082,169.747 193.915,171.08 193,173.5C 189.739,176.216 186.572,179.049 183.5,182C 182.5,182.667 181.5,182.667 180.5,182C 175.667,176.5 170.833,171 166,165.5C 165.506,163.866 165.34,162.199 165.5,160.5 Z"/></g>
<g><path style="opacity:1" fill="#f3c058" d="M 335.5,163.5 C 337.412,166.919 339.912,169.919 343,172.5C 344.238,175.926 343.071,177.592 339.5,177.5C 337.334,175.163 335.334,172.663 333.5,170C 331.583,170.027 329.916,170.861 328.5,172.5C 329.815,174.316 331.315,175.983 333,177.5C 333.49,178.793 333.657,180.127 333.5,181.5C 332.262,182.412 330.928,182.579 329.5,182C 327.946,180.108 326.112,178.608 324,177.5C 322.566,177.93 321.399,178.764 320.5,180C 323.972,183.27 326.305,187.103 327.5,191.5C 325.114,191.741 323.114,191.075 321.5,189.5C 318.445,186.448 315.778,183.115 313.5,179.5C 316.435,176.225 319.435,172.892 322.5,169.5C 325.293,167.546 327.959,165.379 330.5,163C 332.265,162.36 333.932,162.527 335.5,163.5 Z"/></g>
<g><path style="opacity:1" fill="#443b2e" d="M 314.5,151.5 C 314.5,152.833 314.5,154.167 314.5,155.5C 315.5,155.5 316.5,155.5 317.5,155.5C 316.861,157.76 315.694,159.76 314,161.5C 312.951,159.893 311.451,159.227 309.5,159.5C 309.5,160.833 309.5,162.167 309.5,163.5C 313.335,164.446 314.335,166.779 312.5,170.5C 313.167,170.833 313.833,171.167 314.5,171.5C 316.902,169.951 319.568,169.284 322.5,169.5C 319.435,172.892 316.435,176.225 313.5,179.5C 315.778,183.115 318.445,186.448 321.5,189.5C 319.246,188.585 317.246,187.252 315.5,185.5C 313.316,183.326 311.983,180.66 311.5,177.5C 309.099,180.413 307.766,180.079 307.5,176.5C 305.516,176.617 303.85,175.95 302.5,174.5C 300.064,175.891 299.398,175.391 300.5,173C 298.249,172.252 296.916,170.752 296.5,168.5C 299.975,170.407 303.309,172.574 306.5,175C 308.134,175.494 309.801,175.66 311.5,175.5C 311.657,174.127 311.49,172.793 311,171.5C 308.456,169.998 306.29,168.164 304.5,166C 307.233,160.682 310.567,155.849 314.5,151.5 Z"/></g>
<g><path style="opacity:1" fill="#453e2e" d="M 333.5,181.5 C 333.5,183.167 333.5,184.833 333.5,186.5C 332.178,186.67 331.011,186.337 330,185.5C 328.798,187.677 328.298,190.011 328.5,192.5C 326.167,192.5 323.833,192.5 321.5,192.5C 321.5,191.5 321.5,190.5 321.5,189.5C 323.114,191.075 325.114,191.741 327.5,191.5C 326.305,187.103 323.972,183.27 320.5,180C 321.399,178.764 322.566,177.93 324,177.5C 326.112,178.608 327.946,180.108 329.5,182C 330.928,182.579 332.262,182.412 333.5,181.5 Z"/></g>
<g><path style="opacity:1" fill="#4a3e23" d="M 280.5,192.5 C 259.497,192.333 238.497,192.5 217.5,193C 214.69,193.906 212.024,195.073 209.5,196.5C 209.954,193.747 211.621,192.08 214.5,191.5C 236.159,190.334 257.826,190.167 279.5,191C 280.056,191.383 280.389,191.883 280.5,192.5 Z"/></g>
<g><path style="opacity:1" fill="#e3ba67" d="M 337.5,189.5 C 339.167,189.5 340.833,189.5 342.5,189.5C 343.322,195.209 341.489,196.543 337,193.5C 336.421,192.072 336.588,190.738 337.5,189.5 Z"/></g>
<g><path style="opacity:1" fill="#dfba6c" d="M 155.5,189.5 C 159.029,188.889 160.862,190.223 161,193.5C 156.511,196.543 154.678,195.209 155.5,189.5 Z"/></g>
<g><path style="opacity:1" fill="#473d28" d="M 209.5,196.5 C 204.406,200.258 200.406,204.925 197.5,210.5C 197.807,207.72 198.807,205.22 200.5,203C 199.813,201.838 199.647,200.672 200,199.5C 201.011,200.337 202.178,200.67 203.5,200.5C 203.759,196.932 205.759,195.599 209.5,196.5 Z"/></g>
<g><path style="opacity:1" fill="#f2c05c" d="M 280.5,192.5 C 280.833,192.5 281.167,192.5 281.5,192.5C 300.186,200.539 307.186,214.539 302.5,234.5C 302.666,228.158 302.5,221.825 302,215.5C 301.057,212.891 299.39,210.891 297,209.5C 296.506,211.134 296.34,212.801 296.5,214.5C 295.581,211.673 293.914,209.34 291.5,207.5C 288.84,203.039 284.84,200.206 279.5,199C 259.833,198.333 240.167,198.333 220.5,199C 218.942,199.21 217.609,199.71 216.5,200.5C 208.936,203.735 204.269,209.402 202.5,217.5C 201.517,221.298 201.183,225.298 201.5,229.5C 200.839,228.282 200.172,226.949 199.5,225.5C 198.914,225.709 198.414,226.043 198,226.5C 197.503,229.146 197.336,231.813 197.5,234.5C 196.511,229.025 196.178,223.358 196.5,217.5C 196.674,215.139 197.007,212.806 197.5,210.5C 200.406,204.925 204.406,200.258 209.5,196.5C 212.024,195.073 214.69,193.906 217.5,193C 238.497,192.5 259.497,192.333 280.5,192.5 Z"/></g>
<g><path style="opacity:1" fill="#3d3931" d="M 291.5,207.5 C 289.862,206.841 288.195,206.174 286.5,205.5C 284.956,208.356 283.956,211.356 283.5,214.5C 284.5,214.5 285.5,214.5 286.5,214.5C 286.007,216.806 285.674,219.139 285.5,221.5C 286.822,221.67 287.989,221.337 289,220.5C 289.202,218.744 289.702,217.078 290.5,215.5C 290.833,216.333 291.167,217.167 291.5,218C 290.14,220.27 289.473,222.77 289.5,225.5C 261.492,225.833 233.492,225.5 205.5,224.5C 207.731,224.113 210.064,223.947 212.5,224C 215.877,221.254 218.543,217.92 220.5,214C 222.81,213.503 225.143,213.337 227.5,213.5C 226.11,216.93 226.276,220.264 228,223.5C 228.5,223 229,222.5 229.5,222C 228.028,218.509 229.028,215.843 232.5,214C 231.5,211.667 229.833,210 227.5,209C 228.357,208.311 229.023,207.478 229.5,206.5C 228.352,204.851 227.019,203.351 225.5,202C 227.473,201.505 229.473,201.338 231.5,201.5C 231.5,202.5 231.5,203.5 231.5,204.5C 238.393,203.858 240.393,206.858 237.5,213.5C 237.747,214.713 238.414,215.38 239.5,215.5C 239.167,216.167 238.833,216.833 238.5,217.5C 237.566,218.568 237.232,219.901 237.5,221.5C 239.167,221.5 240.833,221.5 242.5,221.5C 241.114,223.76 241.781,224.594 244.5,224C 246.476,221.853 247.809,219.353 248.5,216.5C 249.5,216.833 250.167,217.5 250.5,218.5C 249.294,220.516 249.294,222.516 250.5,224.5C 250.976,221.881 252.309,219.881 254.5,218.5C 253.355,217.109 253.355,215.776 254.5,214.5C 256.747,213.626 259.08,213.292 261.5,213.5C 261.852,210.927 261.352,208.594 260,206.5C 258.956,207.623 258.29,208.956 258,210.5C 257.075,209.953 256.242,209.287 255.5,208.5C 256.853,207.476 257.52,206.143 257.5,204.5C 256.5,204.5 255.5,204.5 254.5,204.5C 254.809,210.372 252.309,212.705 247,211.5C 246.333,209.5 246.333,207.5 247,205.5C 249.585,205.037 251.752,203.87 253.5,202C 255.693,202.57 257.693,202.236 259.5,201C 245.837,200.5 232.171,200.333 218.5,200.5C 218.5,201.5 218.5,202.5 218.5,203.5C 216.833,203.5 215.167,203.5 213.5,203.5C 214.9,202.9 215.9,201.9 216.5,200.5C 217.609,199.71 218.942,199.21 220.5,199C 240.167,198.333 259.833,198.333 279.5,199C 284.84,200.206 288.84,203.039 291.5,207.5 Z"/></g>
<g><path style="opacity:1" fill="#3a373b" d="M 263.5,205.5 C 262.022,205.762 260.689,205.429 259.5,204.5C 262.544,200.638 266.544,199.471 271.5,201C 269.595,201.826 269.261,202.993 270.5,204.5C 276.089,203.113 276.756,204.28 272.5,208C 273.645,210.199 273.645,212.365 272.5,214.5C 271.833,214.167 271.167,213.833 270.5,213.5C 269.752,215.332 268.752,216.999 267.5,218.5C 269.369,219.624 271.369,220.457 273.5,221C 274.357,221.689 275.023,222.522 275.5,223.5C 271.595,225.362 268.595,224.528 266.5,221C 265.216,220.316 264.049,220.483 263,221.5C 264.273,218.84 265.107,215.84 265.5,212.5C 266.5,212.5 267.5,212.5 268.5,212.5C 268.663,210.143 268.497,207.81 268,205.5C 266.384,204.199 264.884,204.199 263.5,205.5 Z"/></g>
<g><path style="opacity:1" fill="#574729" d="M 281.5,192.5 C 285.228,192.795 288.895,193.461 292.5,194.5C 291.359,195.425 291.359,196.259 292.5,197C 294.382,197.198 296.048,197.698 297.5,198.5C 299.659,203.051 301.825,207.718 304,212.5C 304.667,220.167 304.667,227.833 304,235.5C 301.959,236.423 299.792,236.756 297.5,236.5C 264.167,236.5 230.833,236.5 197.5,236.5C 197.5,236.167 197.5,235.833 197.5,235.5C 232.671,235.832 267.671,235.498 302.5,234.5C 307.186,214.539 300.186,200.539 281.5,192.5 Z"/></g>
<g><path style="opacity:1" fill="#957838" d="M 196.5,217.5 C 196.178,223.358 196.511,229.025 197.5,234.5C 197.5,234.833 197.5,235.167 197.5,235.5C 196.184,232.913 195.517,229.913 195.5,226.5C 195.502,223.314 195.835,220.314 196.5,217.5 Z"/></g>
<g><path style="opacity:1" fill="#383939" d="M 242.5,221.5 C 242.5,221.167 242.5,220.833 242.5,220.5C 244.273,217.324 243.273,215.657 239.5,215.5C 238.414,215.38 237.747,214.713 237.5,213.5C 240.393,206.858 238.393,203.858 231.5,204.5C 231.5,203.5 231.5,202.5 231.5,201.5C 229.473,201.338 227.473,201.505 225.5,202C 227.019,203.351 228.352,204.851 229.5,206.5C 229.023,207.478 228.357,208.311 227.5,209C 229.833,210 231.5,211.667 232.5,214C 229.028,215.843 228.028,218.509 229.5,222C 229,222.5 228.5,223 228,223.5C 226.276,220.264 226.11,216.93 227.5,213.5C 225.143,213.337 222.81,213.503 220.5,214C 218.543,217.92 215.877,221.254 212.5,224C 210.064,223.947 207.731,224.113 205.5,224.5C 233.492,225.5 261.492,225.833 289.5,225.5C 289.473,222.77 290.14,220.27 291.5,218C 291.167,217.167 290.833,216.333 290.5,215.5C 289.702,217.078 289.202,218.744 289,220.5C 287.989,221.337 286.822,221.67 285.5,221.5C 285.674,219.139 286.007,216.806 286.5,214.5C 285.5,214.5 284.5,214.5 283.5,214.5C 283.956,211.356 284.956,208.356 286.5,205.5C 288.195,206.174 289.862,206.841 291.5,207.5C 291.215,209.288 291.548,210.955 292.5,212.5C 293.799,213.09 294.632,214.09 295,215.5C 295.499,219.821 295.666,224.154 295.5,228.5C 265.167,228.5 234.833,228.5 204.5,228.5C 204.334,223.821 204.501,219.155 205,214.5C 207.039,213.022 207.872,211.022 207.5,208.5C 208.833,208.5 210.167,208.5 211.5,208.5C 211.12,206.302 211.787,204.635 213.5,203.5C 215.167,203.5 216.833,203.5 218.5,203.5C 218.5,202.5 218.5,201.5 218.5,200.5C 232.171,200.333 245.837,200.5 259.5,201C 257.693,202.236 255.693,202.57 253.5,202C 251.752,203.87 249.585,205.037 247,205.5C 246.333,207.5 246.333,209.5 247,211.5C 252.309,212.705 254.809,210.372 254.5,204.5C 255.5,204.5 256.5,204.5 257.5,204.5C 257.52,206.143 256.853,207.476 255.5,208.5C 256.242,209.287 257.075,209.953 258,210.5C 258.29,208.956 258.956,207.623 260,206.5C 261.352,208.594 261.852,210.927 261.5,213.5C 259.08,213.292 256.747,213.626 254.5,214.5C 253.355,215.776 253.355,217.109 254.5,218.5C 252.309,219.881 250.976,221.881 250.5,224.5C 249.294,222.516 249.294,220.516 250.5,218.5C 250.167,217.5 249.5,216.833 248.5,216.5C 247.809,219.353 246.476,221.853 244.5,224C 241.781,224.594 241.114,223.76 242.5,221.5 Z"/></g>
<g><path style="opacity:1" fill="#d7b16e" d="M 233.5,205.5 C 236.487,205.948 237.487,207.448 236.5,210C 231.522,210.864 230.522,209.364 233.5,205.5 Z"/></g>
<g><path style="opacity:1" fill="#d8b966" d="M 263.5,205.5 C 266.91,205.384 268.244,207.05 267.5,210.5C 263.065,211.078 261.732,209.411 263.5,205.5 Z"/></g>
<g><path style="opacity:1" fill="#dab56a" d="M 248.5,205.5 C 252.161,205.35 253.161,206.85 251.5,210C 250.207,210.49 248.873,210.657 247.5,210.5C 247.366,208.708 247.699,207.042 248.5,205.5 Z"/></g>
<g><path style="opacity:1" fill="#4a3b22" d="M 216.5,200.5 C 215.9,201.9 214.9,202.9 213.5,203.5C 211.787,204.635 211.12,206.302 211.5,208.5C 210.167,208.5 208.833,208.5 207.5,208.5C 207.872,211.022 207.039,213.022 205,214.5C 204.501,219.155 204.334,223.821 204.5,228.5C 234.833,228.5 265.167,228.5 295.5,228.5C 295.666,224.154 295.499,219.821 295,215.5C 294.632,214.09 293.799,213.09 292.5,212.5C 291.548,210.955 291.215,209.288 291.5,207.5C 293.914,209.34 295.581,211.673 296.5,214.5C 297.392,219.438 297.726,224.438 297.5,229.5C 265.833,229.5 234.167,229.5 202.5,229.5C 202.5,225.5 202.5,221.5 202.5,217.5C 204.269,209.402 208.936,203.735 216.5,200.5 Z"/></g>
<g><path style="opacity:1" fill="#715b30" d="M 238.5,217.5 C 238.5,218.5 238.5,219.5 238.5,220.5C 239.833,220.5 241.167,220.5 242.5,220.5C 242.5,220.833 242.5,221.167 242.5,221.5C 240.833,221.5 239.167,221.5 237.5,221.5C 237.232,219.901 237.566,218.568 238.5,217.5 Z"/></g>
<g><path style="opacity:1" fill="#dfb566" d="M 275.5,215.5 C 279.35,215.701 280.35,217.534 278.5,221C 274.537,221.118 273.537,219.284 275.5,215.5 Z"/></g>
<g><path style="opacity:1" fill="#deb466" d="M 257.5,215.5 C 261.35,215.701 262.35,217.534 260.5,221C 256.537,221.118 255.537,219.284 257.5,215.5 Z"/></g>
<g><path style="opacity:1" fill="#e8bb6a" d="M 239.5,215.5 C 243.273,215.657 244.273,217.324 242.5,220.5C 241.167,220.5 239.833,220.5 238.5,220.5C 238.5,219.5 238.5,218.5 238.5,217.5C 238.833,216.833 239.167,216.167 239.5,215.5 Z"/></g>
<g><path style="opacity:1" fill="#dcb564" d="M 221.5,215.5 C 226.197,216.874 226.531,218.874 222.5,221.5C 219.025,219.916 218.692,217.916 221.5,215.5 Z"/></g>
<g><path style="opacity:1" fill="#eec16c" d="M 202.5,217.5 C 202.5,221.5 202.5,225.5 202.5,229.5C 234.167,229.5 265.833,229.5 297.5,229.5C 265.5,230.833 233.5,230.833 201.5,229.5C 201.183,225.298 201.517,221.298 202.5,217.5 Z"/></g>
<g><path style="opacity:1" fill="#fbc354" d="M 302.5,234.5 C 267.671,235.498 232.671,235.832 197.5,235.5C 197.5,235.167 197.5,234.833 197.5,234.5C 197.336,231.813 197.503,229.146 198,226.5C 198.414,226.043 198.914,225.709 199.5,225.5C 200.172,226.949 200.839,228.282 201.5,229.5C 233.5,230.833 265.5,230.833 297.5,229.5C 297.726,224.438 297.392,219.438 296.5,214.5C 296.34,212.801 296.506,211.134 297,209.5C 299.39,210.891 301.057,212.891 302,215.5C 302.5,221.825 302.666,228.158 302.5,234.5 Z"/></g>
<g><path style="opacity:1" fill="#413c31" d="M 197.5,236.5 C 230.833,236.5 264.167,236.5 297.5,236.5C 298.241,238.354 299.241,240.021 300.5,241.5C 293.159,241.334 285.826,241.5 278.5,242C 276.609,243.442 274.609,244.609 272.5,245.5C 271.993,244.141 270.993,243.141 269.5,242.5C 271.003,241.948 272.669,241.948 274.5,242.5C 274.33,241.178 274.663,240.011 275.5,239C 262.833,238.333 250.167,238.333 237.5,239C 241.218,240.489 241.218,241.322 237.5,241.5C 236.5,241.167 235.5,240.833 234.5,240.5C 234.709,239.914 235.043,239.414 235.5,239C 232.167,238.333 228.833,238.333 225.5,239C 226.167,239.333 226.833,239.667 227.5,240C 226.377,241.044 225.044,241.71 223.5,242C 226.38,242.684 229.213,242.517 232,241.5C 232.5,241.833 233,242.167 233.5,242.5C 232.833,243.167 232.167,243.833 231.5,244.5C 231.833,244.833 232.167,245.167 232.5,245.5C 234.51,245.826 236.51,246.159 238.5,246.5C 237.198,248.201 235.531,249.368 233.5,250C 237.3,251.979 240.634,254.479 243.5,257.5C 237.918,254.589 232.585,251.256 227.5,247.5C 225.022,245.197 222.355,243.031 219.5,241C 211.754,240.202 204.087,240.369 196.5,241.5C 196.629,239.784 196.962,238.117 197.5,236.5 Z"/></g>
<g><path style="opacity:1" fill="#393939" d="M 272.5,245.5 C 271.764,247.229 270.43,248.229 268.5,248.5C 267.07,248.579 265.736,248.246 264.5,247.5C 263.494,247.938 263.494,248.604 264.5,249.5C 263.397,249.998 262.397,250.331 261.5,250.5C 261.709,251.086 262.043,251.586 262.5,252C 261.101,252.595 259.768,252.428 258.5,251.5C 257.289,252.274 257.289,253.107 258.5,254C 257.552,254.483 256.552,254.649 255.5,254.5C 255.5,255.5 255.5,256.5 255.5,257.5C 254.167,257.5 252.833,257.5 251.5,257.5C 251.719,258.675 251.386,259.675 250.5,260.5C 248.423,258.918 246.09,257.918 243.5,257.5C 240.634,254.479 237.3,251.979 233.5,250C 235.531,249.368 237.198,248.201 238.5,246.5C 236.51,246.159 234.51,245.826 232.5,245.5C 232.167,245.167 231.833,244.833 231.5,244.5C 232.167,243.833 232.833,243.167 233.5,242.5C 233,242.167 232.5,241.833 232,241.5C 229.213,242.517 226.38,242.684 223.5,242C 225.044,241.71 226.377,241.044 227.5,240C 226.833,239.667 226.167,239.333 225.5,239C 228.833,238.333 232.167,238.333 235.5,239C 235.043,239.414 234.709,239.914 234.5,240.5C 235.5,240.833 236.5,241.167 237.5,241.5C 241.218,241.322 241.218,240.489 237.5,239C 250.167,238.333 262.833,238.333 275.5,239C 274.663,240.011 274.33,241.178 274.5,242.5C 272.669,241.948 271.003,241.948 269.5,242.5C 270.993,243.141 271.993,244.141 272.5,245.5 Z"/></g>
<g><path style="opacity:1" fill="#d2ab5b" d="M 227.5,247.5 C 224.616,246.62 221.95,245.287 219.5,243.5C 212.197,242.503 204.863,242.169 197.5,242.5C 197.33,243.822 197.663,244.989 198.5,246C 205.013,246.172 211.347,246.672 217.5,247.5C 210.833,247.5 204.167,247.5 197.5,247.5C 196.659,245.621 196.325,243.621 196.5,241.5C 204.087,240.369 211.754,240.202 219.5,241C 222.355,243.031 225.022,245.197 227.5,247.5 Z"/></g>
<g><path style="opacity:1" fill="#f5c25b" d="M 300.5,241.5 C 303.167,243.167 303.167,244.833 300.5,246.5C 293.416,245.874 286.75,246.541 280.5,248.5C 279.5,249.167 278.5,249.833 277.5,250.5C 276.957,250.56 276.624,250.893 276.5,251.5C 285.81,252.498 295.143,252.832 304.5,252.5C 306.819,252.992 308.819,253.992 310.5,255.5C 298.919,253.734 287.253,253.067 275.5,253.5C 275.5,251.5 275.5,249.5 275.5,247.5C 271.684,249.674 267.684,251.674 263.5,253.5C 265.36,252.061 267.027,250.395 268.5,248.5C 270.43,248.229 271.764,247.229 272.5,245.5C 274.609,244.609 276.609,243.442 278.5,242C 285.826,241.5 293.159,241.334 300.5,241.5 Z"/></g>
<g><path style="opacity:1" fill="#c7a055" d="M 300.5,246.5 C 293.933,247.201 287.267,247.868 280.5,248.5C 286.75,246.541 293.416,245.874 300.5,246.5 Z"/></g>
<g><path style="opacity:1" fill="#483d2b" d="M 268.5,248.5 C 267.027,250.395 265.36,252.061 263.5,253.5C 258.869,256.447 254.202,259.447 249.5,262.5C 247.059,261.291 245.059,259.624 243.5,257.5C 246.09,257.918 248.423,258.918 250.5,260.5C 251.386,259.675 251.719,258.675 251.5,257.5C 252.833,257.5 254.167,257.5 255.5,257.5C 255.5,256.5 255.5,255.5 255.5,254.5C 256.552,254.649 257.552,254.483 258.5,254C 257.289,253.107 257.289,252.274 258.5,251.5C 259.768,252.428 261.101,252.595 262.5,252C 262.043,251.586 261.709,251.086 261.5,250.5C 262.397,250.331 263.397,249.998 264.5,249.5C 263.494,248.604 263.494,247.938 264.5,247.5C 265.736,248.246 267.07,248.579 268.5,248.5 Z"/></g>
<g><path style="opacity:1" fill="#443a26" d="M 197.5,247.5 C 204.167,247.5 210.833,247.5 217.5,247.5C 218.795,248.488 220.128,249.488 221.5,250.5C 212.833,251.167 204.167,251.833 195.5,252.5C 191.779,252.891 188.779,254.558 186.5,257.5C 186.141,255.234 186.808,253.401 188.5,252C 195.782,250.865 203.115,250.199 210.5,250C 206.162,248.894 201.829,248.061 197.5,247.5 Z"/></g>
<g><path style="opacity:1" fill="#a17d3a" d="M 221.5,250.5 C 222.289,250.783 222.956,251.283 223.5,252C 214.173,252.5 204.839,252.666 195.5,252.5C 204.167,251.833 212.833,251.167 221.5,250.5 Z"/></g>
<g><path style="opacity:1" fill="#9d7c3e" d="M 277.5,250.5 C 286.5,251.167 295.5,251.833 304.5,252.5C 295.143,252.832 285.81,252.498 276.5,251.5C 276.624,250.893 276.957,250.56 277.5,250.5 Z"/></g>
<g><path style="opacity:1" fill="#fdc350" d="M 310.5,255.5 C 313.276,260.902 313.11,266.235 310,271.5C 306.667,270.5 306.667,269.5 310,268.5C 311.215,263.772 309.715,260.439 305.5,258.5C 305.389,257.883 305.056,257.383 304.5,257C 290.967,256.193 277.467,256.36 264,257.5C 260.985,256.641 260.819,255.308 263.5,253.5C 267.684,251.674 271.684,249.674 275.5,247.5C 275.5,249.5 275.5,251.5 275.5,253.5C 287.253,253.067 298.919,253.734 310.5,255.5 Z"/></g>
<g><path style="opacity:1" fill="#514732" d="M 305.5,258.5 C 305.833,259.167 306.167,259.833 306.5,260.5C 293.264,260.612 280.097,260.612 267,260.5C 265.526,262.916 263.36,263.916 260.5,263.5C 262.604,261.901 264.604,260.068 266.5,258C 279.545,257.204 292.545,257.371 305.5,258.5 Z"/></g>
<g><path style="opacity:1" fill="#f6c159" d="M 227.5,247.5 C 232.585,251.256 237.918,254.589 243.5,257.5C 245.059,259.624 247.059,261.291 249.5,262.5C 254.202,259.447 258.869,256.447 263.5,253.5C 260.819,255.308 260.985,256.641 264,257.5C 277.467,256.36 290.967,256.193 304.5,257C 305.056,257.383 305.389,257.883 305.5,258.5C 292.545,257.371 279.545,257.204 266.5,258C 264.604,260.068 262.604,261.901 260.5,263.5C 257.63,264.433 255.296,266.1 253.5,268.5C 251.883,269.038 250.216,269.371 248.5,269.5C 243.816,266.474 239.149,263.474 234.5,260.5C 234.047,259.542 233.381,258.708 232.5,258C 220.167,257.333 207.833,257.333 195.5,258C 191.952,260.591 190.618,264.091 191.5,268.5C 190.5,268.5 189.5,268.5 188.5,268.5C 188.321,266.046 188.987,263.879 190.5,262C 190.37,260.941 189.87,260.108 189,259.5C 187.092,260.818 186.258,262.652 186.5,265C 186.899,268.623 188.232,271.79 190.5,274.5C 188.938,274.267 187.605,273.6 186.5,272.5C 185.167,267.5 185.167,262.5 186.5,257.5C 188.779,254.558 191.779,252.891 195.5,252.5C 204.839,252.666 214.173,252.5 223.5,252C 222.956,251.283 222.289,250.783 221.5,250.5C 220.128,249.488 218.795,248.488 217.5,247.5C 211.347,246.672 205.013,246.172 198.5,246C 197.663,244.989 197.33,243.822 197.5,242.5C 204.863,242.169 212.197,242.503 219.5,243.5C 221.95,245.287 224.616,246.62 227.5,247.5 Z"/></g>
<g><path style="opacity:1" fill="#5c4d2a" d="M 234.5,260.5 C 221.545,259.371 208.545,259.204 195.5,260C 192.875,262.196 191.875,265.03 192.5,268.5C 192.167,268.5 191.833,268.5 191.5,268.5C 190.618,264.091 191.952,260.591 195.5,258C 207.833,257.333 220.167,257.333 232.5,258C 233.381,258.708 234.047,259.542 234.5,260.5 Z"/></g>
<g><path style="opacity:1" fill="#3a3936" d="M 306.5,260.5 C 309.781,265.089 308.781,268.422 303.5,270.5C 286.497,270.667 269.497,270.5 252.5,270C 253.056,269.617 253.389,269.117 253.5,268.5C 255.296,266.1 257.63,264.433 260.5,263.5C 263.36,263.916 265.526,262.916 267,260.5C 280.097,260.612 293.264,260.612 306.5,260.5 Z"/></g>
<g><path style="opacity:1" fill="#4d4021" d="M 313.5,257.5 C 314.65,262.316 314.816,267.316 314,272.5C 312.871,274.141 311.371,275.141 309.5,275.5C 310.458,274.038 311.624,272.705 313,271.5C 313.499,266.845 313.666,262.179 313.5,257.5 Z"/></g>
<g><path style="opacity:1" fill="#3d392d" d="M 234.5,260.5 C 239.149,263.474 243.816,266.474 248.5,269.5C 231.008,270.497 213.341,270.83 195.5,270.5C 194.29,270.068 193.29,269.401 192.5,268.5C 191.875,265.03 192.875,262.196 195.5,260C 208.545,259.204 221.545,259.371 234.5,260.5 Z"/></g>
<g><path style="opacity:1" fill="#393839" d="M 202.5,260.5 C 210.528,260.169 218.528,260.502 226.5,261.5C 226.887,262.72 227.72,263.387 229,263.5C 230.396,262.606 231.896,261.939 233.5,261.5C 235.399,262.729 237.399,263.895 239.5,265C 239.043,265.414 238.709,265.914 238.5,266.5C 239.5,267.167 240.5,267.833 241.5,268.5C 226.511,269.666 211.511,269.833 196.5,269C 192.548,266.598 192.548,264.098 196.5,261.5C 199.264,264.455 201.264,264.121 202.5,260.5 Z"/></g>
<g><path style="opacity:1" fill="#f1c365" d="M 310.5,255.5 C 311.5,256.167 312.5,256.833 313.5,257.5C 313.666,262.179 313.499,266.845 313,271.5C 311.624,272.705 310.458,274.038 309.5,275.5C 307.883,276.038 306.216,276.371 304.5,276.5C 305.183,274.824 306.517,274.157 308.5,274.5C 308.5,273.5 308.5,272.5 308.5,271.5C 270.191,272.815 231.858,272.815 193.5,271.5C 192.388,270.735 191.721,269.735 191.5,268.5C 191.833,268.5 192.167,268.5 192.5,268.5C 193.29,269.401 194.29,270.068 195.5,270.5C 231.5,271.833 267.5,271.833 303.5,270.5C 308.781,268.422 309.781,265.089 306.5,260.5C 306.167,259.833 305.833,259.167 305.5,258.5C 309.715,260.439 311.215,263.772 310,268.5C 306.667,269.5 306.667,270.5 310,271.5C 313.11,266.235 313.276,260.902 310.5,255.5 Z"/></g>
<g><path style="opacity:1" fill="#6f5b32" d="M 253.5,268.5 C 253.389,269.117 253.056,269.617 252.5,270C 269.497,270.5 286.497,270.667 303.5,270.5C 267.5,271.833 231.5,271.833 195.5,270.5C 213.341,270.83 231.008,270.497 248.5,269.5C 250.216,269.371 251.883,269.038 253.5,268.5 Z"/></g>
<g><path style="opacity:1" fill="#fdc350" d="M 191.5,268.5 C 191.721,269.735 192.388,270.735 193.5,271.5C 231.858,272.815 270.191,272.815 308.5,271.5C 308.5,272.5 308.5,273.5 308.5,274.5C 306.517,274.157 305.183,274.824 304.5,276.5C 303.325,276.281 302.325,276.614 301.5,277.5C 300.756,280.443 300.256,283.443 300,286.5C 298.817,287.731 297.651,287.731 296.5,286.5C 297.417,283.242 297.751,279.909 297.5,276.5C 265.662,276.168 233.996,276.502 202.5,277.5C 201.503,277.47 200.836,277.97 200.5,279C 201.5,282 202.5,285 203.5,288C 203.167,288.5 202.833,289 202.5,289.5C 201.759,286.659 200.092,284.659 197.5,283.5C 196.539,281.735 196.205,279.735 196.5,277.5C 193.911,277.539 191.911,276.539 190.5,274.5C 188.232,271.79 186.899,268.623 186.5,265C 186.258,262.652 187.092,260.818 189,259.5C 189.87,260.108 190.37,260.941 190.5,262C 188.987,263.879 188.321,266.046 188.5,268.5C 189.5,268.5 190.5,268.5 191.5,268.5 Z"/></g>
<g><path style="opacity:1" fill="#49391a" d="M 202.5,277.5 C 233.833,277.5 265.167,277.5 296.5,277.5C 296.795,279.735 296.461,281.735 295.5,283.5C 295.5,281.833 295.5,280.167 295.5,278.5C 266.167,278.5 236.833,278.5 207.5,278.5C 206.5,278.5 205.5,278.5 204.5,278.5C 204.5,280.5 204.5,282.5 204.5,284.5C 202.837,282.562 202.171,280.228 202.5,277.5 Z"/></g>
<g><path style="opacity:1" fill="#413b2f" d="M 186.5,272.5 C 187.605,273.6 188.938,274.267 190.5,274.5C 191.911,276.539 193.911,277.539 196.5,277.5C 196.205,279.735 196.539,281.735 197.5,283.5C 197.799,287.105 198.965,290.439 201,293.5C 203.705,296.036 206.205,298.703 208.5,301.5C 205.925,300.272 203.592,298.605 201.5,296.5C 199.351,301.886 198.018,301.552 197.5,295.5C 198.922,291.852 197.755,289.185 194,287.5C 193.517,286.552 193.351,285.552 193.5,284.5C 189.161,284.186 186.161,282.186 184.5,278.5C 187.455,279.159 190.455,279.492 193.5,279.5C 194.003,284.5 194.336,284.167 194.5,278.5C 193.022,278.762 191.689,278.429 190.5,277.5C 188.389,276.395 187.055,274.729 186.5,272.5 Z"/></g>
<g><path style="opacity:1" fill="#39383a" d="M 207.5,278.5 C 206.909,279.151 206.243,279.818 205.5,280.5C 206,280.833 206.5,281.167 207,281.5C 233.379,279.529 259.879,278.862 286.5,279.5C 286.33,280.822 286.663,281.989 287.5,283C 289.473,283.495 291.473,283.662 293.5,283.5C 293.343,282.127 293.51,280.793 294,279.5C 294.495,281.473 294.662,283.473 294.5,285.5C 293.5,285.5 292.5,285.5 291.5,285.5C 291.762,286.978 291.429,288.311 290.5,289.5C 289.315,288.147 287.981,286.98 286.5,286C 259.169,285.5 231.835,285.333 204.5,285.5C 204.5,285.167 204.5,284.833 204.5,284.5C 204.5,282.5 204.5,280.5 204.5,278.5C 205.5,278.5 206.5,278.5 207.5,278.5 Z"/></g>
<g><path style="opacity:1" fill="#f0c061" d="M 202.5,277.5 C 233.996,276.502 265.662,276.168 297.5,276.5C 297.751,279.909 297.417,283.242 296.5,286.5C 297.651,287.731 298.817,287.731 300,286.5C 300.256,283.443 300.756,280.443 301.5,277.5C 302.325,276.614 303.325,276.281 304.5,276.5C 303.378,283.545 300.712,289.878 296.5,295.5C 296.657,294.127 296.49,292.793 296,291.5C 293.36,292.656 290.86,293.989 288.5,295.5C 291.873,292.085 294.206,288.085 295.5,283.5C 296.461,281.735 296.795,279.735 296.5,277.5C 265.167,277.5 233.833,277.5 202.5,277.5 Z"/></g>
<g><path style="opacity:1" fill="#3a3936" d="M 207.5,278.5 C 236.833,278.5 266.167,278.5 295.5,278.5C 295.5,280.167 295.5,281.833 295.5,283.5C 294.206,288.085 291.873,292.085 288.5,295.5C 285.521,296.654 282.521,297.82 279.5,299C 259.167,299.667 238.833,299.667 218.5,299C 211.987,296.319 207.321,291.819 204.5,285.5C 231.835,285.333 259.169,285.5 286.5,286C 287.981,286.98 289.315,288.147 290.5,289.5C 291.429,288.311 291.762,286.978 291.5,285.5C 292.5,285.5 293.5,285.5 294.5,285.5C 294.662,283.473 294.495,281.473 294,279.5C 293.51,280.793 293.343,282.127 293.5,283.5C 291.473,283.662 289.473,283.495 287.5,283C 286.663,281.989 286.33,280.822 286.5,279.5C 259.879,278.862 233.379,279.529 207,281.5C 206.5,281.167 206,280.833 205.5,280.5C 206.243,279.818 206.909,279.151 207.5,278.5 Z"/></g>
<g><path style="opacity:1" fill="#edba57" d="M 202.5,277.5 C 202.171,280.228 202.837,282.562 204.5,284.5C 204.5,284.833 204.5,285.167 204.5,285.5C 207.321,291.819 211.987,296.319 218.5,299C 238.833,299.667 259.167,299.667 279.5,299C 282.521,297.82 285.521,296.654 288.5,295.5C 290.86,293.989 293.36,292.656 296,291.5C 296.49,292.793 296.657,294.127 296.5,295.5C 294.473,298.194 292.139,300.527 289.5,302.5C 286.284,303.938 282.951,305.105 279.5,306C 259.5,306.667 239.5,306.667 219.5,306C 215.595,304.948 211.929,303.448 208.5,301.5C 206.205,298.703 203.705,296.036 201,293.5C 198.965,290.439 197.799,287.105 197.5,283.5C 200.092,284.659 201.759,286.659 202.5,289.5C 202.833,289 203.167,288.5 203.5,288C 202.5,285 201.5,282 200.5,279C 200.836,277.97 201.503,277.47 202.5,277.5 Z"/></g>
<g><path style="opacity:1" fill="#423a30" d="M 334.5,331.5 C 336.739,328.047 339.239,324.714 342,321.5C 342.494,319.866 342.66,318.199 342.5,316.5C 341.127,316.343 339.793,316.51 338.5,317C 336.506,319.827 334.172,322.327 331.5,324.5C 327.549,321.775 327.716,319.108 332,316.5C 332.611,312.912 331.111,311.746 327.5,313C 326.32,314.896 324.82,316.396 323,317.5C 320.926,316.928 319.76,315.595 319.5,313.5C 323.045,311.075 325.045,307.742 325.5,303.5C 323.801,303.34 322.134,303.506 320.5,304C 318,307.167 315.5,310.333 313,313.5C 312.028,316.294 312.861,318.294 315.5,319.5C 317.473,320.806 319.139,322.473 320.5,324.5C 316.819,324.427 314.486,322.76 313.5,319.5C 312.5,319.5 311.5,319.5 310.5,319.5C 310.5,316.167 310.5,312.833 310.5,309.5C 311.708,310.234 313.041,310.567 314.5,310.5C 314.343,309.127 314.51,307.793 315,306.5C 315.333,306.833 315.667,307.167 316,307.5C 316.333,306.5 316.667,305.5 317,304.5C 317.333,304.833 317.667,305.167 318,305.5C 318.03,302.385 319.197,299.885 321.5,298C 322.332,297.312 322.998,297.479 323.5,298.5C 322.494,299.396 322.494,300.062 323.5,300.5C 325.409,299.652 327.409,299.318 329.5,299.5C 329.5,300.5 329.5,301.5 329.5,302.5C 333.009,302.808 334.676,304.808 334.5,308.5C 336.881,309.42 339.214,309.42 341.5,308.5C 342.5,308.833 343.167,309.5 343.5,310.5C 340.673,311.932 337.673,312.599 334.5,312.5C 334.222,314.346 334.889,315.68 336.5,316.5C 342.962,313.116 345.129,315.116 343,322.5C 340.613,325.957 337.78,328.957 334.5,331.5 Z"/></g>
<g><path style="opacity:1" fill="#ebbc60" d="M 319.5,313.5 C 319.762,312.022 319.429,310.689 318.5,309.5C 314.672,311.985 313.672,315.319 315.5,319.5C 312.861,318.294 312.028,316.294 313,313.5C 315.5,310.333 318,307.167 320.5,304C 322.134,303.506 323.801,303.34 325.5,303.5C 325.045,307.742 323.045,311.075 319.5,313.5 Z"/></g>
<g><path style="opacity:1" fill="#f2c059" d="M 184.5,312.5 C 186.53,319.481 183.863,323.147 176.5,323.5C 176.513,329.656 173.513,332.49 167.5,332C 165.34,330.668 163.34,329.168 161.5,327.5C 158.647,325.132 157.481,322.132 158,318.5C 162.833,314.333 167.667,310.167 172.5,306C 174.365,304.699 176.365,304.365 178.5,305C 180.629,307.439 182.629,309.939 184.5,312.5 Z"/></g>
<g><path style="opacity:1" fill="#4d3b24" d="M 174.5,311.5 C 178.976,311.8 180.31,313.967 178.5,318C 176.097,318.63 174.263,317.797 173,315.5C 172.7,313.934 173.2,312.601 174.5,311.5 Z"/></g>
<g><path style="opacity:1" fill="#483b27" d="M 167.5,317.5 C 171.164,319.013 172.164,321.513 170.5,325C 167.208,325.896 164.875,324.729 163.5,321.5C 165.188,320.479 166.521,319.145 167.5,317.5 Z"/></g>
<g><path style="opacity:1" fill="#f1bf5b" d="M 319.5,313.5 C 319.76,315.595 320.926,316.928 323,317.5C 324.82,316.396 326.32,314.896 327.5,313C 331.111,311.746 332.611,312.912 332,316.5C 327.716,319.108 327.549,321.775 331.5,324.5C 334.172,322.327 336.506,319.827 338.5,317C 339.793,316.51 341.127,316.343 342.5,316.5C 342.66,318.199 342.494,319.866 342,321.5C 339.239,324.714 336.739,328.047 334.5,331.5C 332.833,331.5 331.167,331.5 329.5,331.5C 327.051,328.444 324.051,326.111 320.5,324.5C 319.139,322.473 317.473,320.806 315.5,319.5C 313.672,315.319 314.672,311.985 318.5,309.5C 319.429,310.689 319.762,312.022 319.5,313.5 Z"/></g>
<g><path style="opacity:1" fill="#403b30" d="M 304.5,340.5 C 306.701,343.021 309.034,345.521 311.5,348C 312.793,348.49 314.127,348.657 315.5,348.5C 315.209,349.649 314.376,350.316 313,350.5C 310.976,349.487 309.143,348.154 307.5,346.5C 305.447,347.939 304.447,349.939 304.5,352.5C 303.739,351.609 302.739,350.942 301.5,350.5C 298.59,351.973 295.59,352.806 292.5,353C 289.977,347.454 287.311,341.954 284.5,336.5C 282.955,335.548 281.288,335.215 279.5,335.5C 280.24,340.32 281.573,344.986 283.5,349.5C 282.022,349.762 280.689,349.429 279.5,348.5C 277.805,346.207 277.138,343.873 277.5,341.5C 276.995,343.769 275.662,345.103 273.5,345.5C 273.5,345.167 273.5,344.833 273.5,344.5C 275.213,343.365 275.88,341.698 275.5,339.5C 269.363,339.027 263.53,340.027 258,342.5C 257.517,343.448 257.351,344.448 257.5,345.5C 256.8,340.333 253.8,338.499 248.5,340C 250.25,341.319 252.25,341.819 254.5,341.5C 254.817,344.572 254.484,347.572 253.5,350.5C 252.554,350.987 251.554,351.32 250.5,351.5C 248.438,350.271 246.271,349.271 244,348.5C 242.893,348.585 241.893,348.919 241,349.5C 240.501,353.821 240.334,358.154 240.5,362.5C 239.2,357.6 239.2,352.6 240.5,347.5C 241.577,346.982 242.744,346.648 244,346.5C 246.271,347.271 248.438,348.271 250.5,349.5C 252,349.547 253,348.881 253.5,347.5C 251.072,342.615 247.072,340.282 241.5,340.5C 240.909,339.849 240.243,339.182 239.5,338.5C 240,338.167 240.5,337.833 241,337.5C 246.298,337.38 251.632,337.714 257,338.5C 258.168,337.491 259.335,336.491 260.5,335.5C 261.386,336.325 261.719,337.325 261.5,338.5C 263.527,338.662 265.527,338.495 267.5,338C 267.043,337.586 266.709,337.086 266.5,336.5C 268.044,335.378 269.377,335.711 270.5,337.5C 271.48,334.914 271.813,332.247 271.5,329.5C 275.5,329.5 279.5,329.5 283.5,329.5C 283.343,330.873 283.51,332.207 284,333.5C 285.604,337.759 288.104,338.425 291.5,335.5C 292.167,335.833 292.833,336.167 293.5,336.5C 292.675,337.386 291.675,337.719 290.5,337.5C 291.901,341.686 292.734,346.019 293,350.5C 293.414,350.957 293.914,351.291 294.5,351.5C 297.39,349.944 300.39,348.61 303.5,347.5C 305.745,345.433 306.079,343.1 304.5,340.5 Z"/></g>
<g><path style="opacity:1" fill="#f0bf5c" d="M 315.5,348.5 C 314.127,348.657 312.793,348.49 311.5,348C 309.034,345.521 306.701,343.021 304.5,340.5C 302.748,336.69 300.248,333.357 297,330.5C 296.421,329.072 296.588,327.738 297.5,326.5C 298.738,325.588 300.072,325.421 301.5,326C 305.299,331.631 309.632,336.797 314.5,341.5C 316.679,340.243 318.679,338.743 320.5,337C 324.265,336.486 325.265,337.986 323.5,341.5C 320.761,343.851 318.095,346.184 315.5,348.5 Z"/></g>
<g><path style="opacity:1" fill="#403a31" d="M 184.5,312.5 C 186.388,314.988 187.055,317.988 186.5,321.5C 191.275,321.647 195.608,322.647 199.5,324.5C 194.29,322.503 189.79,323.503 186,327.5C 183.752,330.328 181.752,333.328 180,336.5C 179.341,339.888 179.508,343.221 180.5,346.5C 178.643,344.739 177.643,342.406 177.5,339.5C 179.089,336 178.089,335 174.5,336.5C 173.803,334.615 172.803,334.282 171.5,335.5C 169.099,332.587 167.766,332.921 167.5,336.5C 165.833,336.5 164.167,336.5 162.5,336.5C 162.5,335.167 162.5,333.833 162.5,332.5C 161.448,332.649 160.448,332.483 159.5,332C 161.037,330.89 161.703,329.39 161.5,327.5C 163.34,329.168 165.34,330.668 167.5,332C 173.513,332.49 176.513,329.656 176.5,323.5C 183.863,323.147 186.53,319.481 184.5,312.5 Z"/></g>
<g><path style="opacity:1" fill="#edbe63" d="M 273.5,344.5 C 270.518,344.963 267.518,345.296 264.5,345.5C 264.5,347.5 264.5,349.5 264.5,351.5C 267.786,350.793 271.119,350.46 274.5,350.5C 274.714,352.144 274.38,353.644 273.5,355C 268.498,354.477 266.165,356.644 266.5,361.5C 265.307,361.03 264.64,360.03 264.5,358.5C 264.667,357.5 264.833,356.5 265,355.5C 267.473,354.88 269.973,354.214 272.5,353.5C 269.572,352.516 266.572,352.183 263.5,352.5C 263.5,349.833 263.5,347.167 263.5,344.5C 264.873,344.657 266.207,344.49 267.5,344C 265.063,342.625 262.397,342.125 259.5,342.5C 260.354,348.812 261.021,355.145 261.5,361.5C 261.167,361.5 260.833,361.5 260.5,361.5C 260.5,361.167 260.5,360.833 260.5,360.5C 260.138,355.248 259.138,350.248 257.5,345.5C 257.351,344.448 257.517,343.448 258,342.5C 263.53,340.027 269.363,339.027 275.5,339.5C 275.88,341.698 275.213,343.365 273.5,344.5 Z"/></g>
<g><path style="opacity:1" fill="#f3c05b" d="M 199.5,324.5 C 200.793,326.296 202.293,327.963 204,329.5C 204.667,332.167 204.667,334.833 204,337.5C 202.223,340.059 200.723,342.726 199.5,345.5C 193.452,351.716 187.119,352.049 180.5,346.5C 179.508,343.221 179.341,339.888 180,336.5C 181.752,333.328 183.752,330.328 186,327.5C 189.79,323.503 194.29,322.503 199.5,324.5 Z"/></g>
<g><path style="opacity:1" fill="#3b3838" d="M 186.5,343.5 C 185.167,341.833 185.167,340.167 186.5,338.5C 187.682,336.9 189.015,336.567 190.5,337.5C 190.152,333.492 192.152,331.158 196.5,330.5C 195.171,334.472 193.838,338.472 192.5,342.5C 190.5,342.833 188.5,343.167 186.5,343.5 Z"/></g>
<g><path style="opacity:1" fill="#473d25" d="M 197.5,329.5 C 197.833,330.167 198.167,330.833 198.5,331.5C 198.66,333.199 198.494,334.866 198,336.5C 196.088,338.657 194.421,340.991 193,343.5C 190.707,346.134 188.54,346.134 186.5,343.5C 188.5,343.167 190.5,342.833 192.5,342.5C 193.838,338.472 195.171,334.472 196.5,330.5C 192.152,331.158 190.152,333.492 190.5,337.5C 189.015,336.567 187.682,336.9 186.5,338.5C 188.115,332.876 191.782,329.876 197.5,329.5 Z"/></g>
<g><path style="opacity:1" fill="#fcc255" d="M 198.5,331.5 C 198.167,330.833 197.833,330.167 197.5,329.5C 195.631,328.835 193.631,328.169 191.5,327.5C 191.833,325.833 192.833,324.833 194.5,324.5C 201.389,326.96 204.056,331.626 202.5,338.5C 201.5,338.5 200.5,338.5 199.5,338.5C 199.802,335.941 199.468,333.607 198.5,331.5 Z"/></g>
<g><path style="opacity:1" fill="#ecbd60" d="M 241.5,340.5 C 247.072,340.282 251.072,342.615 253.5,347.5C 253,348.881 252,349.547 250.5,349.5C 248.438,348.271 246.271,347.271 244,346.5C 242.744,346.648 241.577,346.982 240.5,347.5C 240.5,346.5 240.5,345.5 240.5,344.5C 242.604,344.799 244.604,344.466 246.5,343.5C 245.333,343.167 244.167,342.833 243,342.5C 240.558,342.482 238.392,343.149 236.5,344.5C 237.672,342.461 239.338,341.128 241.5,340.5 Z"/></g>
<g><path style="opacity:1" fill="#473d2a" d="M 199.5,324.5 C 201.262,324.357 202.929,324.691 204.5,325.5C 207.491,331.566 207.158,337.399 203.5,343C 204.701,343.903 205.535,345.069 206,346.5C 206.236,344.881 207.069,343.881 208.5,343.5C 207.733,347.149 206.4,350.482 204.5,353.5C 204.663,351.143 204.497,348.81 204,346.5C 202.644,345.62 201.144,345.286 199.5,345.5C 200.723,342.726 202.223,340.059 204,337.5C 204.667,334.833 204.667,332.167 204,329.5C 202.293,327.963 200.793,326.296 199.5,324.5 Z"/></g>
<g><path style="opacity:1" fill="#f2bf5c" d="M 304.5,352.5 C 304.586,353.496 304.252,354.329 303.5,355C 299.614,357.11 295.614,358.943 291.5,360.5C 289.971,360.471 288.804,359.804 288,358.5C 286.997,355.16 285.497,352.16 283.5,349.5C 281.573,344.986 280.24,340.32 279.5,335.5C 281.288,335.215 282.955,335.548 284.5,336.5C 287.311,341.954 289.977,347.454 292.5,353C 295.59,352.806 298.59,351.973 301.5,350.5C 302.739,350.942 303.739,351.609 304.5,352.5 Z"/></g>
<g><path style="opacity:1" fill="#f3bf5a" d="M 221.5,336.5 C 223.475,338.137 225.475,339.804 227.5,341.5C 227.789,344.649 227.289,347.649 226,350.5C 224.89,352.037 223.39,352.703 221.5,352.5C 222.167,356.5 222.833,360.5 223.5,364.5C 221.661,365.752 219.828,365.752 218,364.5C 217.323,360.593 216.49,356.759 215.5,353C 212.461,352.187 210.794,353.354 210.5,356.5C 209.848,359.986 207.848,361.153 204.5,360C 203.667,357.919 203.667,355.752 204.5,353.5C 206.4,350.482 207.733,347.149 208.5,343.5C 209.355,340.431 210.689,337.597 212.5,335C 215.502,335.158 218.502,335.658 221.5,336.5 Z"/></g>
<g><path style="opacity:1" fill="#443b28" d="M 215.5,341.5 C 219.833,341.167 221.833,343.167 221.5,347.5C 215.598,348.926 213.598,346.926 215.5,341.5 Z"/></g>
<g><path style="opacity:1" fill="#4c3f26" d="M 273.5,344.5 C 273.5,344.833 273.5,345.167 273.5,345.5C 271.502,346.148 269.502,346.981 267.5,348C 270.513,348.502 273.513,349.002 276.5,349.5C 276.5,351.833 276.5,354.167 276.5,356.5C 274.473,356.338 272.473,356.505 270.5,357C 269.015,358.756 269.348,359.923 271.5,360.5C 271.5,360.833 271.5,361.167 271.5,361.5C 269.833,361.5 268.167,361.5 266.5,361.5C 266.165,356.644 268.498,354.477 273.5,355C 274.38,353.644 274.714,352.144 274.5,350.5C 271.119,350.46 267.786,350.793 264.5,351.5C 264.5,349.5 264.5,347.5 264.5,345.5C 267.518,345.296 270.518,344.963 273.5,344.5 Z"/></g>
<g><path style="opacity:1" fill="#423d2d" d="M 199.5,345.5 C 197.877,348.215 197.21,351.215 197.5,354.5C 191.001,352.756 184.334,352.089 177.5,352.5C 177.5,351.5 177.5,350.5 177.5,349.5C 178.5,349.5 179.5,349.5 180.5,349.5C 180.5,348.5 180.5,347.5 180.5,346.5C 187.119,352.049 193.452,351.716 199.5,345.5 Z"/></g>
<g><path style="opacity:1" fill="#574525" d="M 257.5,345.5 C 259.138,350.248 260.138,355.248 260.5,360.5C 258.87,358.974 258.037,356.974 258,354.5C 257.502,351.518 257.335,348.518 257.5,345.5 Z"/></g>
<g><path style="opacity:1" fill="#584825" d="M 223.5,364.5 C 223.03,365.693 222.03,366.36 220.5,366.5C 219.5,366.333 218.5,366.167 217.5,366C 216.115,362.321 215.282,358.488 215,354.5C 214.586,354.043 214.086,353.709 213.5,353.5C 212.859,354.993 211.859,355.993 210.5,356.5C 210.794,353.354 212.461,352.187 215.5,353C 216.49,356.759 217.323,360.593 218,364.5C 219.828,365.752 221.661,365.752 223.5,364.5 Z"/></g>
<g><path style="opacity:1" fill="#f4c05b" d="M 240.5,347.5 C 239.2,352.6 239.2,357.6 240.5,362.5C 241.274,363.147 242.274,363.48 243.5,363.5C 246.009,362.157 248.676,361.657 251.5,362C 252.876,364.54 252.21,366.54 249.5,368C 243.88,370.508 238.88,369.675 234.5,365.5C 233.209,358.846 233.209,352.18 234.5,345.5C 235.167,345.167 235.833,344.833 236.5,344.5C 238.392,343.149 240.558,342.482 243,342.5C 244.167,342.833 245.333,343.167 246.5,343.5C 244.604,344.466 242.604,344.799 240.5,344.5C 240.5,345.5 240.5,346.5 240.5,347.5 Z"/></g>
<g><path style="opacity:1" fill="#fac353" d="M 266.5,361.5 C 268.167,361.5 269.833,361.5 271.5,361.5C 273.833,361.5 276.167,361.5 278.5,361.5C 278.5,362.5 278.5,363.5 278.5,364.5C 272.97,364.372 267.637,365.039 262.5,366.5C 261.549,365.081 261.216,363.415 261.5,361.5C 261.021,355.145 260.354,348.812 259.5,342.5C 262.397,342.125 265.063,342.625 267.5,344C 266.207,344.49 264.873,344.657 263.5,344.5C 263.5,347.167 263.5,349.833 263.5,352.5C 266.572,352.183 269.572,352.516 272.5,353.5C 269.973,354.214 267.473,354.88 265,355.5C 264.833,356.5 264.667,357.5 264.5,358.5C 264.64,360.03 265.307,361.03 266.5,361.5 Z"/></g>
<g><path style="opacity:1" fill="#e5bc67" d="M 271.5,361.5 C 271.5,361.167 271.5,360.833 271.5,360.5C 274.187,360.336 276.854,360.503 279.5,361C 280.728,362.49 280.728,363.99 279.5,365.5C 275.002,366.111 270.502,366.777 266,367.5C 264.615,367.486 263.449,367.152 262.5,366.5C 267.637,365.039 272.97,364.372 278.5,364.5C 278.5,363.5 278.5,362.5 278.5,361.5C 276.167,361.5 273.833,361.5 271.5,361.5 Z"/></g>
<g><path style="opacity:1" fill="#514125" d="M 260.5,361.5 C 260.833,361.5 261.167,361.5 261.5,361.5C 261.216,363.415 261.549,365.081 262.5,366.5C 263.449,367.152 264.615,367.486 266,367.5C 270.502,366.777 275.002,366.111 279.5,365.5C 278.653,366.966 277.32,367.8 275.5,368C 270.833,368.667 266.167,368.667 261.5,368C 260.577,365.959 260.244,363.792 260.5,361.5 Z"/></g>
<g><path style="opacity:1" fill="#463d28" d="M 234.5,365.5 C 238.88,369.675 243.88,370.508 249.5,368C 252.21,366.54 252.876,364.54 251.5,362C 248.676,361.657 246.009,362.157 243.5,363.5C 242.274,363.48 241.274,363.147 240.5,362.5C 241.873,362.657 243.207,362.49 244.5,362C 243.007,360.844 243.174,360.01 245,359.5C 247.464,360.161 249.964,360.661 252.5,361C 253.444,363.719 253.777,366.552 253.5,369.5C 248.195,370.442 242.861,370.609 237.5,370C 235.624,369.082 234.624,367.582 234.5,365.5 Z"/></g>
</svg>
